<?xml version="1.0" standalone="no"?>
<!DOCTYPE svg PUBLIC "-//W3C//DTD SVG 1.1//EN" "http://www.w3.org/Graphics/SVG/1.1/DTD/svg11.dtd" >
<svg xmlns="http://www.w3.org/2000/svg">
<metadata>
This is a custom SVG webfont generated by Font Squirrel.
Copyright   : Converted by Andrey V Panov from TeX fonts Some glyphs are copied from Blue Sky fonts released by AMS
</metadata>
<defs>
<font id="CMUSerifRoman" horiz-adv-x="1024" >
<font-face units-per-em="2048" ascent="1638" descent="-410" />
<missing-glyph horiz-adv-x="681" />
<glyph unicode=" "  horiz-adv-x="681" />
<glyph unicode="&#x09;" horiz-adv-x="681" />
<glyph unicode="&#xa0;" horiz-adv-x="681" />
<glyph unicode="!" horiz-adv-x="569" d="M174 109q0 47 33 77.5t76 30.5t74.5 -30.5t31.5 -77.5q0 -45 -32.5 -76t-73.5 -31q-45 0 -77 33t-32 74zM174 1360q0 49 33 77.5t76 28.5t75.5 -28.5t32.5 -77.5q0 -2 -1 -10.5t-1 -12.5l-78 -905q-4 -47 -30 -47q-23 0 -27 55l-78 891q0 6 -1 15.5t-1 13.5z" />
<glyph unicode="&#x22;" d="M244 1360q0 51 30.5 72.5t63.5 21.5q35 0 65.5 -21.5t30.5 -72.5q0 -12 -36 -328.5t-36 -320.5h-47q-6 66 -24 225l-33 287q-14 127 -14 137zM588 1358q0 47 27.5 71.5t66.5 24.5q33 0 63.5 -21.5t30.5 -72.5q0 -10 -14 -136l-33 -291l-24 -222h-46q-4 31 -37.5 330 t-33.5 317z" />
<glyph unicode="#" horiz-adv-x="1705" d="M117 313q0 23 53 23h365l96 352h-467q-47 0 -47 23q0 25 61 24h467l166 606q0 2 4 18.5t7 21.5t7.5 16.5t10.5 15.5t12 4q18 0 18 -24q0 -12 -12 -62l-164 -596h441l165 606q0 4 5 19l6 21q2 7 7 17.5t10 14.5t11 4q20 0 21 -24q0 -23 -14 -62l-164 -596h354q49 0 51 -24 q-2 -23 -53 -23h-367l-94 -352h465q49 0 49 -23q0 -25 -61 -24h-467l-168 -606q-16 -76 -39 -76q-18 0 -18 24q0 12 12 62l164 596h-441l-166 -606q0 -4 -4 -19l-6 -21q-2 -7 -7 -17.5t-10 -14.5t-11 -4q-20 0 -21 24q0 23 14 62l164 596h-354q-51 -1 -51 24zM584 336h440 l96 352h-440z" />
<glyph unicode="$" d="M113 1051q0 133 92 252.5t274 140.5v92h64v-92q88 -6 155.5 -35t106.5 -67.5t62.5 -88t31.5 -89.5t8 -79q0 -55 -29.5 -78.5t-62.5 -23.5q-39 0 -66.5 25.5t-27.5 66.5q0 39 25.5 66.5t66.5 27.5q8 0 33 -4q-61 193 -303 215v-555q2 0 22.5 -5t30.5 -8l34 -10 q24 -7 39 -15.5t38.5 -19.5t42.5 -28l38 -36q20 -19 39 -44.5t33 -54.5q49 -96 49 -205q0 -162 -104.5 -283.5t-261.5 -135.5v-93h-64v93q-90 6 -158.5 37.5t-106.5 72.5t-62.5 95.5t-31.5 96.5t-7 80q0 55 29.5 80t64.5 25q37 0 65.5 -26.5t28.5 -65.5t-25.5 -66.5 t-66.5 -27.5q-10 0 -35 4q55 -217 305 -244v612q-2 0 -23.5 5.5l-32.5 8.5t-37 11t-43 16t-43 23.5t-46.5 32t-42 41t-39.5 53.5q-59 96 -59 207zM219 1112q0 -90 52.5 -153.5t119.5 -92.5q39 -14 88 -24v536q-113 -12 -186.5 -88t-73.5 -178zM543 43q121 16 190.5 102 t69.5 193q0 92 -49 166t-125 106q-12 6 -86 27v-594z" />
<glyph unicode="%" horiz-adv-x="1705" d="M115 1124q0 176 90 294t211 118q74 0 147 -66q166 -158 383 -157q246 0 389 194q25 29 43 29q16 0 28.5 -12.5t12.5 -28.5q0 -12 -16 -37l-1036 -1542q-23 -31 -41 -31q-16 0 -28.5 12.5t-12.5 28.5q0 14 18 41l920 1370l-2 2q-106 -72 -273 -71q-158 0 -309 86 q43 -106 43 -232q0 -172 -77 -291.5t-189 -119.5q-121 0 -211 116.5t-90 296.5zM242 1122.5q0 -96.5 14 -168t34.5 -108.5t48.5 -58.5t45 -26.5t34 -5q84 0 148.5 104.5t64.5 263.5q0 156 -64.5 261.5t-148.5 105.5q-18 0 -35.5 -5t-44.5 -26.5t-47.5 -58.5t-34.5 -109.5 t-14 -169zM1022 299q0 176 90 294t211 118q111 0 188.5 -120t77.5 -294q0 -172 -76.5 -292t-189.5 -120q-121 0 -211 117t-90 297zM1149 297q0 -96 14.5 -168t35 -108.5t48 -58t45 -27t33.5 -5.5q84 0 148.5 104.5t64.5 264.5q0 156 -64.5 261.5t-148.5 105.5 q-18 0 -35.5 -5.5t-44 -27t-47 -58t-35 -109.5t-14.5 -169z" />
<glyph unicode="&#x26;" horiz-adv-x="1591" d="M86 262q0 76 31.5 126t113.5 134l187 199q-84 213 -84 416q0 152 86 240.5t192 88.5q51 0 89 -27.5t55.5 -70.5t26 -84t8.5 -82q0 -63 -45.5 -144t-87.5 -133.5t-117 -136.5q41 -106 122.5 -239t136 -205t81.5 -102q131 162 293 446q12 37 12 41q0 39 -38 64.5t-108 25.5 v64q82 -6 250 -6q86 0 199 6v-64q-68 0 -113 -12t-79.5 -45t-55 -60.5t-57.5 -91.5q-174 -299 -271 -409q154 -182 283 -183q82 0 153.5 59.5t75.5 170.5h52q-2 -129 -86 -211t-203 -82q-182 0 -361 156q-174 -156 -370 -156q-154 0 -262.5 88t-108.5 219zM256 328 q0 -66 17.5 -131.5t69.5 -122t130 -56.5q168 0 315 132q-80 80 -188 239q-94 135 -164 285q-98 -94 -139 -163.5t-41 -182.5zM463 1184q0 -164 61 -346q215 233 215 366q0 10 -1 25.5t-7 52.5t-17.5 64.5t-37 51t-60.5 23.5q-61 0 -107 -59t-46 -178z" />
<glyph unicode="'" horiz-adv-x="569" d="M188 1360q0 47 29 70.5t66 23.5q35 0 64.5 -22.5t29.5 -71.5q0 -2 -6 -76l-64 -573h-47l-70 618q0 6 -1 16.5t-1 14.5z" />
<glyph unicode="(" horiz-adv-x="794" d="M203 512q0 346 129 625q55 117 132 215t128 141t65 43q20 0 21 -20q0 -10 -27 -35q-330 -336 -329 -969q0 -635 321 -958q35 -35 35 -46q0 -20 -21 -20q-14 0 -63 41t-125 135t-131 209q-135 279 -135 639z" />
<glyph unicode=")" horiz-adv-x="794" d="M117 -492q0 10 26 35q330 336 330 969q0 635 -317 956q-39 37 -39 48q0 20 20 20q14 0 63.5 -41t125 -135t131.5 -209q135 -279 135 -639q0 -346 -129 -625q-55 -117 -132 -215t-128 -141t-66 -43q-20 0 -20 20z" />
<glyph unicode="*" d="M133 903q0 35 47 58l285 135l-289 135q-43 20 -43 55q0 20 16.5 38.5t38.5 18.5q16 0 45 -22l254 -184q-31 338 -30 348q0 20 15 35.5t40 15.5q20 0 36.5 -14.5t16.5 -36.5l-30 -348l227 168q53 39 72 38q23 0 39 -18t16 -39q0 -35 -47 -57l-285 -135l289 -136 q43 -20 43 -55q0 -20 -16.5 -38.5t-38.5 -18.5q-12 0 -33 12q-4 2 -47 34l-110 81l-109 80q31 -338 30 -348q0 -20 -15 -36t-40 -16q-20 0 -36.5 14.5t-16.5 37.5l30 348l-286 -207q-31 0 -47.5 15.5t-18.5 24.5t-2 17z" />
<glyph unicode="+" horiz-adv-x="1593" d="M117 512q0 16 15 19.5t63 3.5h577v579q0 2 -1 11.5t-1 15.5q0 49 24.5 49t24.5 -49v-606h578q2 0 12 1t16 1q47 0 47.5 -25t-49.5 -25q-6 0 -15 1t-11 1h-578v-608q0 -47 -24.5 -47t-24.5 49q0 6 1 15.5t1 11.5v579h-577q-4 0 -14.5 -1t-16.5 -1q-47 0 -47 25z" />
<glyph unicode="," horiz-adv-x="567" d="M176 109q0 43 28.5 75.5t80.5 32.5q61 0 96 -58.5t35 -156.5q0 -106 -43 -204.5t-85 -145.5t-59 -47q-20 0 -20 22q0 8 14 23q147 158 148 352q0 31 -4 31l-5 -4q-35 -29 -77 -29q-51 0 -80 33t-29 76z" />
<glyph unicode="-" horiz-adv-x="681" d="M20 381v121h545v-121h-545z" />
<glyph unicode="." horiz-adv-x="569" d="M174 109q0 43 31 74.5t78 31.5q43 0 74.5 -29.5t31.5 -77t-32.5 -78t-73.5 -30.5q-47 0 -78 33t-31 76z" />
<glyph unicode="/" d="M117 -483q0 10 8 32l723 1932q0 2 5 13l8 18q3 7 9.5 13.5t14.5 6.5q20 0 20 -25q0 -2 -6 -26l-725 -1934q-12 -35 -19.5 -45t-19.5 -10q-18 0 -18 25z" />
<glyph unicode="0" d="M80 655q0 301 76 465q106 244 356 244q53 0 108.5 -14.5t126 -69.5t113.5 -145q82 -174 82 -480q0 -299 -76 -462q-111 -238 -356 -238q-92 0 -185.5 47t-152.5 160q-92 169 -92 493zM250 680q0 -309 22 -432q25 -133 93.5 -190.5t144.5 -57.5q82 0 150.5 61.5 t89.5 194.5q23 131 22 424q0 285 -20 399q-27 133 -98.5 186.5t-143.5 53.5q-27 0 -55.5 -8t-69.5 -31t-72.5 -80t-46.5 -143q-16 -111 -16 -377z" />
<glyph unicode="1" d="M182 1169v64q246 0 373 131q35 0 41 -8t6 -45v-1149q0 -61 30 -80t161 -19h65v-63q-72 6 -332 6t-331 -6v63h65q129 0 160 18.5t31 80.5v1061q-107 -54 -269 -54z" />
<glyph unicode="2" d="M102 993q0 143 108.5 257t274.5 114q188 0 311.5 -111.5t123.5 -285.5q0 -61 -18.5 -116.5t-43 -98.5t-90.5 -112t-119 -118l-172 -153l-217 -211h369q180 0 194 16q20 29 45 182h52l-58 -356h-760q0 37 3.5 48t19.5 28l393 438q215 242 215 453q0 137 -71.5 235 t-202.5 98q-90 0 -166 -55t-111 -153q6 2 27 2q51 0 79.5 -32t28.5 -75q0 -55 -35.5 -81.5t-70.5 -26.5q-14 0 -32.5 3t-47.5 31.5t-29 79.5z" />
<glyph unicode="3" d="M86 276q0 61 35 90t80 29q47 0 80.5 -30.5t33.5 -83.5q0 -57 -39.5 -89t-95.5 -24q49 -82 139.5 -119t174.5 -37q88 0 159.5 76t71.5 262q0 158 -61.5 249t-182.5 91h-90q-31 0 -40 3t-9 20q0 20 31 24q31 0 80 6q119 4 182 107q57 96 57 233q0 125 -59.5 177.5 t-136.5 52.5q-72 0 -151 -30t-122 -97q127 0 127 -103q0 -45 -28.5 -74.5t-75.5 -29.5q-45 0 -75 28.5t-30 77.5q0 117 104.5 198t258.5 81q152 0 264.5 -80t112.5 -203q0 -121 -80 -220t-207 -140q156 -31 249 -136.5t93 -234.5q0 -160 -126 -277.5t-310 -117.5 q-170 0 -292 92t-122 229z" />
<glyph unicode="4" d="M57 401l629 961q16 25 41 24q12 0 18.5 -2t10.5 -10t4 -15v-26v-932h205v-63h-205v-178q0 -59 24.5 -78t130.5 -19h43v-63q-84 6 -278 6q-193 0 -277 -6v63h43q106 0 131 18.5t25 78.5v178h-545v63zM115 401h499v764z" />
<glyph unicode="5" d="M102 330q0 61 33 84.5t68 23.5q47 0 74.5 -29.5t27.5 -70.5t-27.5 -70.5t-74.5 -29.5q-23 0 -35 4q27 -94 109.5 -162t191.5 -68q137 0 219 133q49 86 49 281q0 172 -37 258q-57 131 -174 131q-166 0 -264 -143q-12 -18 -26 -19q-20 0 -24.5 11.5t-4.5 42.5v606 q0 49 20 49q8 0 25 -6q129 -57 272 -58q147 0 279 60q10 6 16 6q20 0 21 -23q0 -8 -16.5 -31.5t-51.5 -54t-80 -59.5t-110.5 -48.5t-137.5 -19.5q-86 0 -174 27v-399q106 104 260 104q164 0 277 -132t113 -316q0 -193 -133.5 -325t-313.5 -132q-164 0 -267.5 117t-103.5 258 z" />
<glyph unicode="6" d="M86 647q0 322 164 519.5t375 197.5q123 0 191.5 -62.5t68.5 -158.5q0 -53 -31 -76t-63 -23q-37 0 -66 25t-29 70q0 92 113 92q-53 82 -180 82q-39 0 -79 -11.5t-92 -49.5t-92 -98t-68 -173t-28 -260v-49q84 203 256 202.5t291 -131.5t119 -325q0 -199 -124 -331 t-298 -132q-78 0 -148.5 32.5t-136 106.5t-104.5 216t-39 337zM274 463q0 -201 37 -297q6 -16 19.5 -38t37 -50.5t62.5 -47t84 -18.5q137 0 203 133q35 74 35 275q0 205 -37 280q-63 127 -191 127q-86 0 -145.5 -59t-82 -138t-22.5 -167z" />
<glyph unicode="7" d="M115 963l67 421h51q6 -25 16.5 -36t69 -20t177.5 -9h497q0 -47 -18 -72l-277 -389q-88 -123 -127 -350q-23 -152 -22 -336v-104q0 -113 -94.5 -113t-94.5 113q0 391 252 770l126 178q99 139 104 145h-424q-186 0 -201 -12q-20 -18 -51 -186h-51z" />
<glyph unicode="8" d="M86 309q0 229 295 377q-127 86 -150 111q-90 100 -90 225q0 143 108.5 242.5t262.5 99.5q147 0 258 -85t111 -220q0 -190 -248 -318q164 -102 203 -145q100 -111 100 -252q0 -164 -126 -276.5t-300 -112.5q-170 0 -297 99t-127 255zM188 309q0 -127 95.5 -212t228.5 -85 q129 0 225.5 74t96.5 184q0 43 -14.5 80t-43 66.5t-46 43t-50.5 36.5l-252 159q-240 -133 -240 -346zM231 1102q0 -98 103 -166l254 -164q203 119 203 287q0 109 -83 181.5t-198 72.5q-113 0 -196 -59.5t-83 -151.5z" />
<glyph unicode="9" d="M86 903q0 109 32 183.5t99 148.5q123 129 301 129q76 0 143.5 -32t132 -104.5t103.5 -215t39 -338.5q0 -317 -153.5 -518t-360.5 -201q-131 0 -208 59.5t-77 161.5q0 53 30 75.5t64 22.5q37 0 66 -24.5t29 -69.5q0 -37 -23.5 -65.5t-83.5 -28.5q59 -74 201 -74 q51 0 102 23.5t106.5 81t89.5 178.5t34 291v65q-82 -205 -256 -205q-172 0 -291 132t-119 325zM270 901q0 -203 37 -278q63 -129 191 -129q125 0 187.5 111.5t62.5 256.5q0 201 -33 289q-61 162 -196.5 162t-205.5 -129q-43 -76 -43 -283z" />
<glyph unicode=":" horiz-adv-x="567" d="M176 108.5q0 45.5 32 77t77 31.5t76.5 -31.5t31.5 -77t-31.5 -77t-76.5 -31.5t-77 31.5t-32 77zM176 774q0 45 32 77t77 32t76.5 -32t31.5 -77t-31.5 -76.5t-76.5 -31.5t-77 31.5t-32 76.5z" />
<glyph unicode=";" horiz-adv-x="569" d="M174 774q0 43 31 75t78 32q43 0 74.5 -30t31.5 -77q0 -45 -32.5 -76.5t-73.5 -31.5q-47 0 -78 32.5t-31 75.5zM176 109q0 43 28.5 75.5t80.5 32.5q61 0 96 -58.5t35 -156.5q0 -106 -43 -204.5t-85 -145.5t-59 -47q-20 0 -20 22q0 8 14 23q147 158 148 352q0 31 -4 31 l-5 -4q-35 -29 -77 -29q-51 0 -80 33t-29 76z" />
<glyph unicode="&#x3c;" horiz-adv-x="1593" d="M174 512q2 16 33 33l1136 518q41 20 52 20q20 0 20 -20q0 -16 -37 -35q-6 -2 -10 -4l-999 -459q-6 -2 -119 -53q113 -51 119 -53l999 -459q47 -20 47 -39q0 -20 -20 -20q-10 0 -52 20l-1136 518q-31 17 -33 33z" />
<glyph unicode="=" horiz-adv-x="1593" d="M117 311q4 25 41 25h1255q59 0 60 -23q0 -25 -56 -24h-1245q-55 -1 -55 22zM117 711q0 25 43 24h1251q61 -4 62 -24q0 -23 -52 -23h-1263q-41 0 -41 23z" />
<glyph unicode="&#x3e;" horiz-adv-x="1593" d="M174 -39q0 12 9.5 18.5t39.5 20.5l1000 459q6 2 118 53q-113 51 -118 53l-1000 459q-49 23 -49 39q0 20 23 20q10 0 51 -20l1136 -518q2 0 7.5 -3t9.5 -6l8 -7q4 -3 6 -7t2 -10q-2 -18 -59 -45l-1110 -506q-41 -20 -51 -20q-23 0 -23 20z" />
<glyph unicode="?" horiz-adv-x="966" d="M115 1171q0 106 95 189.5t253 83.5q207 0 297 -84t90 -193q0 -127 -98 -200q-270 -201 -271 -457v-72q0 -23 -1 -32t-7 -16t-18 -7q-16 0 -20.5 9t-4.5 40v92q0 109 43 234t137 227q23 23 35 40t23.5 57t11.5 98q0 35 -1 55t-13.5 55t-34 55.5t-66.5 37t-108 16.5 q-186 0 -269 -139q115 0 115 -93q0 -41 -25.5 -67.5t-68.5 -26.5q-39 0 -66.5 24.5t-27.5 73.5zM346 108.5q0 45.5 32 77t77 31.5t76.5 -31.5t31.5 -77t-31.5 -77t-76.5 -31.5t-77 31.5t-32 77z" />
<glyph unicode="@" horiz-adv-x="1591" d="M115 711q0 305 199.5 519t482.5 214q125 0 245.5 -51.5t218 -143.5t157 -237.5t59.5 -319.5q0 -92 -8.5 -160.5t-29 -134t-63.5 -100.5t-108 -35q-68 0 -129.5 36t-75.5 110q-104 -145 -270 -146q-162 0 -284 130t-122 318.5t122 318.5t284 130q166 0 280 -158 q14 -16 47 -16h35q35 0 42 -7t7 -42v-494q0 -135 72 -135q49 0 79.5 30t45 88t19.5 115.5t5 139.5q0 176 -58 318.5t-152.5 227.5t-203 129t-216.5 44q-256 0 -442.5 -200t-186.5 -488q0 -281 182 -484.5t457 -203.5q279 0 557 131q10 6 47 6h18q20 0 27.5 -1t14 -5t6.5 -15 q0 -20 -115 -60t-184 -56q-193 -45 -369 -46q-299 0 -495.5 218.5t-196.5 515.5zM528 711q0 -170 80 -287t191 -117q137 0 235 142q29 43 29 88v348q0 43 -27 82q-94 147 -237 147q-113 0 -192 -116.5t-79 -286.5z" />
<glyph unicode="A" horiz-adv-x="1536" d="M66 0v63q182 4 229 138l424 1224q8 25 17 33t32 8q12 0 19.5 -2t12.5 -9t7 -11t8 -19l442 -1280q16 -51 49 -66.5t126 -15.5h36v-63q-129 6 -268 6q-221 0 -295 -6v63q170 0 170 62q0 4 -6 29l-108 313h-506l-95 -268q-4 -8 -4 -31q0 -43 40 -74t114 -31v-63 q-197 6 -236 6q-67 0 -208 -6zM477 530h461l-231 666z" />
<glyph unicode="B" horiz-adv-x="1449" d="M74 0v63h49q111 0 136.5 18.5t25.5 78.5v1079q0 59 -26 77.5t-136 18.5h-49v64h749q195 0 325 -104.5t130 -241.5q0 -113 -95.5 -203t-244.5 -119q170 -18 282.5 -120.5t112.5 -235.5q0 -150 -129 -262.5t-327 -112.5h-803zM455 750h297q158 0 242.5 95t84.5 208 q0 100 -67.5 191t-202.5 91h-254q-70 0 -85 -14t-15 -68v-503zM455 145q0 -53 15 -67.5t85 -14.5h256q147 0 232 96.5t85 217.5t-74.5 224.5t-213.5 103.5h-385v-560z" />
<glyph unicode="C" horiz-adv-x="1478" d="M115 700q0 309 211 526.5t501 217.5q90 0 170 -33t117 -61.5t90 -81.5l103 151q16 25 32.5 25t19.5 -9.5t3 -39.5v-486q0 -33 -4 -41t-29 -8q-20 0 -24.5 6t-8.5 29q-31 221 -153.5 353t-292.5 132q-49 0 -103.5 -11t-133 -53t-139 -111.5t-104.5 -201t-44 -305.5 q0 -172 44 -304t104.5 -200.5t139 -110.5t134 -53.5t104.5 -11.5q176 0 311 125t148 336q2 10 2 14.5t2 9.5t7 7t13 2q27 0 27 -35q0 -195 -149.5 -358.5t-385.5 -163.5q-291 0 -501.5 216t-210.5 529z" />
<glyph unicode="D" horiz-adv-x="1562" d="M72 0v63h49q111 0 136.5 18.5t25.5 78.5v1079q0 59 -26 77.5t-136 18.5h-49v64h749q262 0 444.5 -209t182.5 -502q0 -287 -183.5 -487.5t-443.5 -200.5h-749zM459 145q0 -53 15 -67.5t85 -14.5h207q135 0 226 55.5t139 119.5q113 154 112 450q0 311 -106 457 q-137 190 -373 190h-205q-70 0 -85 -14t-15 -68v-1108z" />
<glyph unicode="E" horiz-adv-x="1392" d="M68 0v63h49q111 0 136.5 18.5t25.5 78.5v1073q0 59 -26 77.5t-136 18.5h-49v64h1153l57 -461h-51q-14 117 -32.5 184.5t-63 119.5t-117 72.5t-189.5 20.5h-264q-70 0 -85 -14.5t-15 -67.5v-491h184q141 0 181 49t40 190h52v-542h-52q0 139 -40 189t-181 50h-184v-547 q0 -53 15.5 -67.5t84.5 -14.5h273q88 0 152.5 11.5t109.5 40t75.5 61.5t52 92.5t34 114.5t26.5 145h51l-86 -528h-1181z" />
<glyph unicode="F" horiz-adv-x="1335" d="M68 0v63h49q111 0 136.5 18.5t25.5 78.5v1073q0 59 -26 77.5t-136 18.5h-49v64h1124l57 -461h-51q-14 117 -32.5 183.5t-60.5 119.5t-112.5 73.5t-185.5 20.5h-246q-70 0 -85 -14.5t-15 -67.5v-518h176q139 0 178 50t39 190h51v-543h-51q0 141 -39 190.5t-178 49.5h-176 v-504q0 -43 7 -59.5t50 -28t137 -11.5h68v-63q-74 6 -344 6q-239 0 -311 -6z" />
<glyph unicode="G" horiz-adv-x="1605" d="M115 700.5q0 311.5 212 527.5t500 216q72 0 133.5 -16.5t110.5 -49t74.5 -54t60.5 -56.5l103 151q16 25 32.5 25t19.5 -9.5t3 -39.5v-486q0 -33 -4 -41t-29 -8q-20 0 -24 6t-9 29q-31 221 -154.5 353t-291.5 132q-49 0 -103.5 -11t-134 -53t-140 -110.5t-104.5 -200 t-44 -305.5q0 -172 44 -304t105.5 -200.5t142 -111.5t138 -54.5t108.5 -11.5q35 0 76 7.5t102.5 30t100.5 76.5t39 134v131q0 61 -30 80t-161 19h-65v63q74 -6 329 -6q23 0 250 6v-63q-98 0 -119.5 -14.5t-21.5 -75.5v-357q0 -47 -18 -47q-16 0 -63.5 46t-68.5 81 q-49 -86 -155.5 -130t-227.5 -44q-295 0 -505.5 217t-210.5 528.5z" />
<glyph unicode="H" horiz-adv-x="1536" d="M68 0v63h49q111 0 136.5 18.5t25.5 78.5v1079q0 59 -26 77.5t-136 18.5h-49v64q72 -6 303 -6q229 0 301 6v-64h-49q-111 0 -136.5 -18.5t-25.5 -77.5v-479h612v479q0 59 -25.5 77.5t-136.5 18.5h-49v64q72 -6 303 -6q229 0 301 6v-64h-49q-111 0 -136.5 -18.5 t-25.5 -77.5v-1079q0 -59 26 -78t136 -19h49v-63q-72 6 -303 6q-229 0 -301 -6v63h49q111 0 136.5 18.5t25.5 78.5v536h-612v-536q0 -59 25.5 -78t136.5 -19h49v-63q-72 6 -303 6q-229 0 -301 -6z" />
<glyph unicode="I" horiz-adv-x="739" d="M57 0v63h54q115 0 141.5 18.5t26.5 78.5v1079q0 59 -27 77.5t-141 18.5h-54v64q72 -6 314 -6q240 0 311 6v-64h-53q-115 0 -141.5 -18.5t-26.5 -77.5v-1079q0 -59 26.5 -78t141.5 -19h53v-63q-72 6 -313 6q-240 0 -312 -6z" />
<glyph unicode="J" horiz-adv-x="1050" d="M84 229q0 61 36 90t79 29q45 0 79.5 -30.5t34.5 -84.5q0 -115 -131 -114q74 -119 226 -119q86 0 148 84t62 219v934q0 43 -8 59.5t-51 27.5t-141 11h-74v64q78 -6 344 -6q129 0 264 6v-64q-104 0 -130.5 -12t-26.5 -72v-909q0 -74 -2 -90q-18 -121 -124 -209t-257 -88 q-137 0 -232.5 79.5t-95.5 194.5z" />
<glyph unicode="K" horiz-adv-x="1591" d="M68 0v63h49q111 0 136.5 18.5t25.5 78.5v1079q0 59 -26 77.5t-136 18.5h-49v64q72 -6 303 -6q229 0 301 6v-64h-49q-111 0 -136.5 -18.5t-25.5 -77.5v-651l641 612q37 33 37 68q0 12 -5.5 25.5t-29 27.5t-60.5 14v64q70 -6 261 -6q121 0 174 6v-64q-170 -2 -291 -123 l-369 -354l473 -696q43 -63 85 -81t130 -18v-63q-129 6 -235 6q-221 0 -293 -6v63q121 0 121 62q0 23 -31 70l-371 548l-237 -225v-358q0 -59 25.5 -78t136.5 -19h49v-63q-72 6 -303 6q-229 0 -301 -6z" />
<glyph unicode="L" horiz-adv-x="1280" d="M68 63h49q111 0 136.5 18.5t25.5 78.5v1079q0 59 -26 77.5t-136 18.5h-49v64q72 -6 311 -6q270 0 344 6v-64h-68q-94 0 -137 -12t-50 -28.5t-7 -57.5v-1092q0 -53 15.5 -67.5t84.5 -14.5h168q104 0 179 31t115 70t66.5 112.5t35 120.5t16.5 131h51l-57 -528h-1067v63z " />
<glyph unicode="M" horiz-adv-x="1875" d="M76 0v63q74 0 121 14.5t64.5 42t21.5 46t4 49.5v1024q0 59 -25.5 77.5t-136.5 18.5h-49v64h346q37 0 47 -6.5t25 -38.5l444 -1147l448 1153q10 29 19.5 34t48.5 5h346v-64h-49q-111 0 -136.5 -18.5t-25.5 -77.5v-1079q0 -59 25.5 -78t136.5 -19h49v-63q-76 6 -293 6 q-219 0 -295 -6v63h50q111 0 136 18.5t25 78.5v1175h-2l-503 -1296q-14 -39 -37 -39q-25 0 -41 45l-494 1274h-2v-1104q0 -31 4 -49.5t21.5 -46t64.5 -42t121 -14.5v-63q-215 6 -239.5 6t-239.5 -6z" />
<glyph unicode="N" horiz-adv-x="1536" d="M68 63q74 0 121 14.5t64 42t21.5 46t4.5 49.5v1069q0 29 -7.5 36t-42.5 11q-61 4 -102 4h-59v64h348q29 0 37 -4t22 -23l723 -1063v875q0 31 -4 49t-21.5 46t-64.5 42t-121 14v64q215 -6 239.5 -6t239.5 6v-64q-74 0 -121 -14t-64 -42t-21.5 -46.5t-4.5 -48.5v-1131 q0 -33 -4 -43t-24 -10q-14 0 -35 27l-836 1228q-8 12 -20 25v-1065q0 -31 4 -49.5t21.5 -46t64.5 -42t121 -14.5v-63q-215 6 -239.5 6t-239.5 -6v63z" />
<glyph unicode="O" horiz-adv-x="1591" d="M115 694q0 313 200.5 531.5t479.5 218.5q281 0 481.5 -219t200.5 -531q0 -309 -201 -524t-481 -215q-276 0 -478 214t-202 525zM326 723q0 -190 45 -335.5t117.5 -224.5t150.5 -117t158 -38q78 0 154.5 37t149.5 115t119 224t46 339q0 150 -32 270.5t-82 193.5 t-114.5 121t-125 66.5t-117.5 18.5q-72 0 -147 -32t-150.5 -102.5t-123.5 -209t-48 -326.5z" />
<glyph unicode="P" horiz-adv-x="1392" d="M72 0v63h49q111 0 136.5 18.5t25.5 78.5v1079q0 59 -26 77.5t-136 18.5h-49v64h723q207 0 345 -114t138 -267q0 -152 -140.5 -261.5t-326.5 -109.5h-346v-487q0 -59 25.5 -78t136.5 -19h49v-63q-72 6 -303 6q-229 0 -301 -6zM459 700h282q92 0 159 26t97.5 57.5t48 83 t19.5 80t2 71.5q0 45 -2 73.5t-19.5 80t-48 83t-97 56t-159.5 24.5h-182q-70 0 -85 -14t-15 -68v-553z" />
<glyph unicode="Q" horiz-adv-x="1591" d="M115 694q0 313 200.5 531.5t479.5 218.5q281 0 481.5 -219t200.5 -531q0 -227 -116 -411.5t-300 -268.5q39 -104 83 -152t113.5 -48t124 46t62.5 126q4 37 22 37q23 0 23 -43q0 -49 -10.5 -104.5t-35 -121t-76.5 -108.5t-126 -43q-55 0 -96 23.5t-64.5 52t-43 90 t-26.5 100.5l-20 117q-98 -31 -194 -31q-281 0 -481.5 215t-200.5 524zM319 694q0 -166 36 -294t94.5 -200.5t108.5 -110.5t101 -56q-29 57 -28 98q0 68 47 120t121 52q145 0 231 -217q242 178 242 608q0 186 -46 327.5t-120 219.5t-153 115t-158 37q-78 0 -156 -36 t-151.5 -112t-121 -219.5t-47.5 -331.5zM676 131q0 -23 7 -47.5t37 -51t77 -26.5q96 0 180 47q-39 205 -178 205q-55 0 -89 -39t-34 -88z" />
<glyph unicode="R" horiz-adv-x="1507" d="M72 63h49q111 0 136.5 18.5t25.5 78.5v1079q0 59 -26 77.5t-136 18.5h-49v64h643q223 0 378.5 -109.5t155.5 -259.5q0 -115 -101 -205t-257 -129q203 -70 250 -237l26 -164q8 -59 13.5 -89t14.5 -71t18.5 -60.5t23.5 -40t32.5 -27.5t43.5 -7q47 0 87 42t48 140 q4 33 25 33q27 0 26 -35q0 -27 -8 -60.5t-27.5 -72.5t-61.5 -65.5t-97 -26.5q-160 0 -258 86q-41 37 -59.5 85t-21.5 86t-3 122q0 119 -12.5 171t-65.5 103q-72 70 -191 70h-235v-518q0 -59 25.5 -78t136.5 -19h49v-63q-74 6 -299.5 6t-298.5 -6v63zM459 723h227 q109 0 182.5 26.5t108.5 74.5t48 96.5t13 109.5q0 72 -16 126t-51 86t-70 52.5t-89 28.5t-91 10t-96 2q-100 0 -121 -4q-23 -2 -32 -13t-11 -23.5t-2 -41.5v-530z" />
<glyph unicode="S" horiz-adv-x="1136" d="M115 414q0 23 1 31t7 14t18 6q23 0 25 -21q6 -203 127 -315q119 -111 323 -111q123 0 199 88.5t76 204.5q0 111 -64 189q-27 35 -60.5 57.5t-54 29.5t-59.5 17q-254 61 -270 68q-121 41 -194.5 144.5t-73.5 230.5q0 164 115.5 280.5t283.5 116.5q84 0 154.5 -26.5 t99.5 -50.5t74 -67l71 117q16 27 31 27q16 0 19.5 -9.5t3.5 -39.5v-412q0 -23 -1 -31t-7.5 -13t-18.5 -5q-20 0 -25 24q-57 428 -399 428q-117 0 -193.5 -78.5t-76.5 -189.5q0 -90 56 -163.5t151 -96.5l262 -63q131 -31 219 -147t88 -267q0 -174 -113.5 -300t-290.5 -126 q-127 0 -225 42t-151 101q-41 -68 -68 -106l-6 -10q-16 -27 -31 -27q-16 0 -19 10t-3 39v410z" />
<glyph unicode="T" horiz-adv-x="1478" d="M74 926l39 460h1251l39 -460h-51q-8 92 -15.5 145t-25 103.5t-39 75t-62.5 44t-94 24.5t-133 5q-94 0 -117 -4q-25 -6 -31 -23.5t-6 -54.5v-1079q0 -41 8.5 -57.5t55.5 -29t151 -12.5h82v-63q-84 6 -389 6q-303 0 -387 -6v63h82q104 0 151.5 12.5t55.5 29t8 57.5v1079 q0 29 -2 41t-11 22.5t-29.5 14.5t-110.5 4q-80 0 -133.5 -5t-94.5 -24.5t-62.5 -44t-39 -75t-24.5 -103.5t-15 -145h-51z" />
<glyph unicode="U" horiz-adv-x="1536" d="M68 1335v64q72 -6 303 -6q229 0 301 6v-64h-49q-111 0 -136.5 -18.5t-25.5 -77.5v-780q0 -137 38 -231.5t97 -136.5t107.5 -57.5t95.5 -15.5q156 0 274.5 124t118.5 331v711q0 31 -4 49t-21.5 46t-64.5 42t-121 14v64q221 -6 244 -6q20 0 241 6v-64q-74 0 -121 -13 t-64 -42t-21.5 -49.5t-4.5 -54.5v-656q0 -100 -6 -141q-27 -178 -153.5 -301t-300.5 -123q-211 0 -363.5 148.5t-152.5 363.5v772q0 59 -26 77.5t-136 18.5h-49z" />
<glyph unicode="V" horiz-adv-x="1536" d="M39 1335v64q221 -6 260 -6q219 0 293 6v-64q-168 0 -168 -59q0 -8 12 -37l391 -1034l375 987q10 31 10 41q0 41 -37.5 70.5t-111.5 31.5v64q160 -6 233 -6q104 0 199 6v-64q-172 -2 -223 -137l-457 -1204q-8 -25 -16 -32t-33 -7q-20 0 -30.5 8t-20.5 37l-475 1257 q-20 55 -56 66.5t-145 11.5z" />
<glyph unicode="W" horiz-adv-x="2103" d="M37 1335v64q29 0 81 -2t93 -3t76 -1q217 0 291 6v-64q-172 0 -172 -61q0 -14 4 -27l329 -1007l285 878l-45 144q-16 51 -51 62t-133 11v64q29 0 81 -2t93 -3t75 -1q217 0 291 6v-64q-172 0 -172 -61q0 -6 6 -31l328 -1003l307 946q10 31 11 41q0 37 -43 71.5t-136 36.5 v64q160 -6 244 -6q94 0 186 6v-64q-162 0 -204 -137l-392 -1202q-4 -16 -7 -23.5t-11 -12.5t-22 -5q-27 0 -39 39l-340 1042l-338 -1040q-4 -16 -7.5 -23.5t-11.5 -12.5t-22 -5q-27 0 -39 39l-410 1255q-18 59 -45.5 72.5t-140.5 13.5z" />
<glyph unicode="X" horiz-adv-x="1536" d="M49 0v63q94 0 163 29t89.5 50.5t44.5 56.5l336 495l-377 570q-29 43 -67.5 57t-122.5 14h-39v64q113 -6 266 -6q227 0 299 6v-64q-61 -2 -97 -21.5t-36 -39.5q0 -8 14 -31l264 -395l234 346q18 29 18 47q0 37 -33.5 64.5t-93.5 29.5v64q82 -6 263 -6q23 0 60.5 1t87.5 3 t79 2v-64q-207 -2 -297 -133l-281 -411l432 -654q31 -45 70 -59.5t123 -14.5h39v-63q-129 6 -266 6q-227 0 -299 -6v63q61 2 97 21.5t36 40.5q0 2 -11 22l-323 490l-291 -430q-20 -33 -20 -49q0 -33 32.5 -62.5t96.5 -32.5v-63q-74 6 -263 6q-6 0 -227 -6z" />
<glyph unicode="Y" horiz-adv-x="1536" d="M23 1399q129 -6 266 -6q229 0 303 6v-64q-76 0 -109.5 -10t-33.5 -41q0 -14 14 -35l371 -604l337 549q20 31 21 61q0 35 -28.5 57.5t-88.5 22.5v64q160 -6 236 -6q106 0 200 6v-64q-182 0 -262 -133l-395 -643v-395q0 -63 25.5 -82t138.5 -19h47v-63q-74 6 -299 6 t-299 -6v63h49q111 0 136.5 18.5t25.5 78.5v399l-430 701q-18 31 -32.5 44t-51.5 22t-105 9h-36v64z" />
<glyph unicode="Z" horiz-adv-x="1251" d="M115 35q0 18 14 41l797 1259h-322q-123 0 -204 -27.5t-124 -86t-60 -123t-23 -160.5h-52l23 461h917h26q7 0 15 -4t10.5 -10.5t2.5 -18.5q0 -16 -15 -39l-794 -1257h336q111 0 188.5 23.5t122.5 60t71.5 103.5t36 129.5t15.5 160.5h51l-35 -547h-944q-35 0 -44 5t-9 30z " />
<glyph unicode="[" horiz-adv-x="569" d="M213 -512v2048h309v-47h-172v-1954h172v-47h-309z" />
<glyph unicode="\" d="M117 1507q0 25 18.5 25t34.5 -43l725 -1935q10 -31 10 -37q0 -25 -20 -25q-16 0 -35 47l-725 1938q-8 20 -8 30z" />
<glyph unicode="]" horiz-adv-x="569" d="M43 -465h172v1954h-172v47h309v-2048h-309v47z" />
<glyph unicode="^" horiz-adv-x="1251" d="M240 991l383 295l385 -295l-31 -43l-354 230l-353 -230z" />
<glyph unicode="_" horiz-adv-x="1593" d="M172 -436q0 41 61 41h1123q61 0 61 -41q0 -35 -57 -41h-1129q-59 0 -59 41z" />
<glyph unicode="`" d="M205 1239q0 29 20.5 52.5t50.5 23.5q23 0 45.5 -18.5t104.5 -98.5l158 -154l-31 -40q-35 16 -274 153l-13 6l-15 9q-5 3 -15.5 11.5t-15.5 15.5t-10 17.5t-5 22.5z" />
<glyph unicode="a" d="M86 195q0 174 205 266q123 59 377 74v75q0 127 -66.5 194.5t-150.5 67.5q-150 0 -222 -94q61 -2 83 -32.5t22 -61.5q0 -41 -25.5 -67.5t-68.5 -26.5q-41 0 -68 25.5t-27 70.5q0 100 90.5 166t219.5 66q168 0 280 -113q35 -35 52.5 -80t19.5 -74.5t2 -87.5v-409 q0 -12 4 -32t22.5 -45.5t49.5 -25.5q74 0 73 131v115h52v-115q0 -109 -57.5 -151.5t-110.5 -42.5q-68 0 -111 50t-49 118q-31 -78 -101.5 -128.5t-166.5 -50.5q-74 0 -143.5 18.5t-127 70t-57.5 129.5zM244 197q0 -76 54 -125t130 -49q86 0 163 66.5t77 197.5v205 q-227 -8 -325.5 -98.5t-98.5 -196.5z" />
<glyph unicode="b" horiz-adv-x="1136" d="M57 1335v64l295 22v-649q119 133 281 133q176 0 305 -135t129 -328q0 -195 -135 -330t-322 -135q-170 0 -268 150q-72 -125 -74 -127h-51v1221q0 76 -27 95t-133 19zM358 233q0 -43 29 -86q82 -125 215 -124q143 0 232 131q63 98 63 290q0 190 -59 285q-82 131 -215 131 q-150 0 -242 -131q-23 -33 -23 -74v-422z" />
<glyph unicode="c" horiz-adv-x="909" d="M70 442.5q0 194.5 128 335t316 140.5q125 0 219 -59.5t94 -160.5q0 -45 -26.5 -70.5t-67.5 -25.5q-43 0 -68.5 26.5t-25.5 67.5q0 18 6 36t28.5 37t61.5 22q-74 76 -219 75q-104 0 -190 -98t-86 -322q0 -117 28.5 -202.5t75.5 -129.5t93 -64.5t91 -20.5q201 0 269 215 q6 20 26 20q27 0 27 -20q0 -10 -8 -36t-33 -67t-60.5 -76.5t-98 -61.5t-140.5 -26q-180 0 -310 135.5t-130 330z" />
<glyph unicode="d" horiz-adv-x="1136" d="M70 440q0 195 136 330t320 135q156 0 258 -127v443q0 76 -26.5 95t-132.5 19v64l295 22v-1243q0 -76 26.5 -95.5t132.5 -19.5v-63l-301 -23v136q-106 -135 -274 -136q-176 0 -305 135t-129 328zM240 438q0 -190 59 -284q82 -131 215 -131q152 0 242 143q23 35 22 76v420 q0 41 -22 75q-84 123 -221 123q-143 0 -232 -131q-63 -98 -63 -291z" />
<glyph unicode="e" horiz-adv-x="909" d="M57 451q0 193 124 330t302 137q180 0 273.5 -117t93.5 -285q0 -31 -8 -37t-43 -6h-572q0 -209 62 -307q86 -137 231 -137q20 0 44 4t73 21.5t92 64.5t68 121q6 29 26 28q27 0 27 -24q0 -18 -19.5 -58.5t-56.5 -88.5t-108.5 -84t-157.5 -36q-180 0 -315.5 136.5 t-135.5 337.5zM229 516h486q0 43 -7.5 91t-29 114.5t-71.5 108.5t-124 42q-33 0 -68.5 -14t-78.5 -48t-73 -111t-34 -183z" />
<glyph unicode="f" horiz-adv-x="624" d="M68 819v64h161v235q0 152 98.5 239t219.5 87q80 0 132 -43t52 -101q0 -39 -23.5 -64.5t-66.5 -25.5q-41 0 -64.5 26t-23.5 62q0 66 61 86q-31 14 -67 15q-74 0 -131.5 -76t-57.5 -203v-237h240v-64h-233v-659q0 -59 24.5 -78t130.5 -19h43v-63q-82 6 -260 6 q-25 0 -63.5 -1t-90 -3t-79.5 -2v63q109 0 134 13.5t25 79.5v663h-161z" />
<glyph unicode="g" d="M57 -162q0 66 50.5 123t138.5 82q-90 57 -90 182q0 96 63 170q-96 80 -96 211q0 121 96 210t236 89q123 0 217 -74q98 96 217 97q53 0 78.5 -33t25.5 -68q0 -31 -19.5 -46t-39.5 -15q-25 0 -42.5 16.5t-17.5 42.5q0 43 33 56q-6 2 -20 2q-100 0 -185 -80q84 -78 84 -199 t-96 -210t-235 -89q-115 0 -203 64q-35 -41 -35 -97q0 -51 31 -91t78 -46q14 -2 153 -2q82 0 127 -2t109.5 -15.5t115.5 -39.5q133 -74 134 -234q0 -117 -134.5 -190.5t-320.5 -73.5q-188 0 -320.5 74.5t-132.5 185.5zM164 -162q0 -84 99 -148.5t249 -64.5q147 0 246.5 63.5 t99.5 149.5q0 61 -35 100t-106.5 54.5t-121.5 18.5t-142 3h-121q-70 -4 -119 -55t-49 -121zM276 604q0 -252 179 -252q90 0 145 82q33 55 33 172q0 252 -178 252q-90 0 -146 -82q-33 -55 -33 -172z" />
<glyph unicode="h" horiz-adv-x="1136" d="M66 0v63q109 0 134 13.5t25 79.5v1065q0 76 -26.5 95t-132.5 19v64l294 22v-712h2q33 74 107 135t188 61q154 0 215 -76q45 -51 54.5 -108t9.5 -205v-391q2 -43 35 -52.5t125 -9.5v-63q-209 6 -230 6q-16 0 -231 -6v63q109 0 134.5 13.5t25.5 79.5v477q0 104 -32 165.5 t-120 61.5q-106 0 -191 -89t-85 -239v-376q0 -66 25.5 -79.5t133.5 -13.5v-63q-209 6 -229 6q-16 0 -231 -6z" />
<glyph unicode="i" horiz-adv-x="567" d="M68 0v63q109 0 134 13.5t25 79.5v551q0 76 -25.5 94t-125.5 18v64l286 22v-751q0 -61 22 -76t122 -15v-63q-209 6 -213 6q-28 0 -225 -6zM154 1262q0 41 31.5 74.5t76.5 33.5t77 -30.5t32 -78t-32 -78t-77 -30.5q-47 0 -77.5 33t-30.5 76z" />
<glyph unicode="j" horiz-adv-x="624" d="M-82 -256q0 41 25.5 67.5t68.5 26.5t68.5 -26.5t25.5 -67.5q0 -37 -21.5 -60.5t-49.5 -31.5q53 -27 110 -27q47 0 79 28t46.5 74t19.5 84.5t5 82.5v811q0 76 -29.5 95t-146.5 19v64l311 22v-1007q0 -137 -82 -227.5t-198 -90.5q-94 0 -163 44t-69 120zM213 1262 q0 45 31.5 76.5t77 31.5t77 -31.5t31.5 -76.5t-31.5 -77t-77 -32t-77 32t-31.5 77z" />
<glyph unicode="k" horiz-adv-x="1079" d="M57 0v63q109 0 134.5 13.5t25.5 79.5v1065q0 76 -26.5 95t-133.5 19v64l295 22v-983l289 250q45 39 45 80q0 47 -59 51v64q86 -6 229 -6q84 0 143 6v-64q-129 -6 -258 -110q-29 -23 -97.5 -82.5t-68.5 -65.5q0 -2 2.5 -7t6.5 -9t4 -6l260 -367q53 -74 92 -91.5t107 -17.5 v-63q-88 6 -179 6q-49 0 -221 -6v63q74 0 74 48q0 33 -205 313q-25 37 -39 55l-131 -112v-211q0 -66 25.5 -79.5t134.5 -13.5v-63q-123 6 -225 6q-21 0 -224 -6z" />
<glyph unicode="l" horiz-adv-x="567" d="M68 0v63q109 0 134 13.5t25 79.5v1065q0 76 -26.5 95t-132.5 19v64l294 22v-1265q0 -66 26 -79.5t134 -13.5v-63l-227 6q-24 0 -227 -6z" />
<glyph unicode="m" horiz-adv-x="1705" d="M66 0v63q109 0 134 13.5t25 79.5v549q0 76 -26.5 95t-132.5 19v64l288 22v-215q96 215 303 215q240 0 273 -200q35 78 108.5 139t188.5 61q154 0 215 -76q45 -51 54 -108t9 -205v-391q2 -43 35 -52.5t125 -9.5v-63q-209 6 -229 6q-16 0 -232 -6v63q109 0 134.5 13.5 t25.5 79.5v477q0 104 -32 165.5t-120 61.5q-106 0 -191 -89t-85 -239v-376q0 -66 25.5 -79.5t134.5 -13.5v-63q-209 6 -230 6q-16 0 -231 -6v63q109 0 134.5 13.5t25.5 79.5v477q0 104 -32 165.5t-120 61.5q-106 0 -191 -89t-85 -239v-376q0 -66 25.5 -79.5t133.5 -13.5v-63 q-209 6 -229 6q-16 0 -231 -6z" />
<glyph unicode="n" horiz-adv-x="1136" d="M66 0v63q109 0 134 13.5t25 79.5v549q0 76 -26.5 95t-132.5 19v64l288 22v-215q96 215 303 215q154 0 215 -76q45 -51 54.5 -108t9.5 -205v-391q2 -43 35 -52.5t125 -9.5v-63q-209 6 -230 6q-16 0 -231 -6v63q109 0 134.5 13.5t25.5 79.5v477q0 104 -32 165.5t-120 61.5 q-106 0 -191 -89t-85 -239v-376q0 -66 25.5 -79.5t133.5 -13.5v-63q-209 6 -229 6q-16 0 -231 -6z" />
<glyph unicode="o" d="M57 438.5q0 194.5 132.5 337t322.5 142.5q186 0 319.5 -141.5t133.5 -338.5q0 -193 -134.5 -327t-320.5 -134q-182 0 -317.5 133.5t-135.5 328zM227 455q0 -199 52 -289q80 -137 233 -137q76 0 139.5 41t98.5 110q45 90 45 275q0 197 -54 284q-80 133 -231 133 q-66 0 -130.5 -34.5t-103.5 -102.5q-49 -90 -49 -280z" />
<glyph unicode="p" horiz-adv-x="1136" d="M57 -334q109 0 134.5 13.5t25.5 78.5v959q0 68 -25.5 85t-134.5 17v64l295 22v-135q123 135 287 135q174 0 301 -135t127 -328q0 -195 -135 -330t-322 -135q-102 0 -170.5 52.5t-81.5 91.5v-19v-344q0 -66 26 -79t134 -13v-63q-215 6 -231 6q-20 0 -230 -6v63zM358 233 q0 -31 4.5 -42t24.5 -44q82 -125 215 -124q117 0 206 119.5t89 299.5q0 172 -81 292t-193 120q-80 0 -150 -43t-115 -121v-457z" />
<glyph unicode="q" horiz-adv-x="1079" d="M70 440q0 197 135 331t317 134q76 0 138.5 -37t90 -73.5t46.5 -75.5l77 186h46v-1147q0 -66 25.5 -79t133.5 -13v-63q-215 6 -231 6q-20 0 -230 -6v63q109 0 134.5 13.5t25.5 78.5v367q-113 -147 -272 -148q-178 0 -307 136.5t-129 326.5zM240 440q0 -176 80.5 -296.5 t193.5 -120.5q111 0 188 83q82 90 82 173v288q0 96 -68.5 191.5t-180.5 95.5q-117 0 -206 -118t-89 -296z" />
<glyph unicode="r" horiz-adv-x="800" d="M57 0v63q109 0 134.5 13.5t25.5 79.5v549q0 76 -26.5 95t-133.5 19v64l285 22v-225q29 88 90.5 156.5t161.5 68.5q66 0 108.5 -37t42.5 -88q0 -45 -27.5 -67.5t-60.5 -22.5q-37 0 -62.5 23.5t-25.5 64.5q0 25 11.5 44.5t20.5 26.5t15 9q-4 2 -22 2q-113 0 -177.5 -112.5 t-64.5 -272.5v-315q0 -59 24.5 -78t131.5 -19h43v-63q-82 6 -260 6q-25 0 -64 -1t-90 -3t-80 -2z" />
<glyph unicode="s" horiz-adv-x="806" d="M68 297q0 23 1 31t7 14t18 6q14 0 19.5 -6t9.5 -29q31 -141 97.5 -215.5t187.5 -74.5q115 0 173 51t58 135q0 150 -213 188q-123 25 -174 41.5t-96 53.5q-88 72 -88 174t77.5 177t249.5 75q115 0 193 -58q23 18 35 33q27 25 41 25q16 0 19 -10.5t3 -39.5v-206 q0 -23 -1 -31t-7 -13.5t-19 -5.5q-23 0 -24 19q-16 248 -240 248q-121 0 -175 -46.5t-54 -109.5q0 -35 16.5 -61.5t38 -42t61.5 -30t64 -19.5l72 -15q164 -31 233 -98q86 -86 86 -195q0 -121 -82 -203t-247 -82q-133 0 -226 89q-12 -12 -21 -22.5l-12.5 -14.5t-4.5 -6.5 t-3 -4.5q-41 -41 -51 -41q-16 0 -19 9.5t-3 40.5v270z" />
<glyph unicode="t" horiz-adv-x="794" d="M39 819v45q94 4 156.5 70.5t84 148.5t23.5 177h51v-377h293v-64h-293v-569q0 -221 138 -221q59 0 98 60.5t39 168.5v113h51v-117q0 -111 -51 -194t-152 -83q-37 0 -73.5 9.5t-84 34t-77 85t-29.5 148.5v565h-174z" />
<glyph unicode="u" horiz-adv-x="1136" d="M66 819v64l301 22v-680q0 -49 4 -77.5t20.5 -61.5t55 -48t100.5 -15q111 0 179.5 91t68.5 226v365q0 76 -27 95t-133 19v64l301 22v-727q0 -76 26.5 -95.5t133.5 -19.5v-63l-295 -23v185q-86 -184 -264 -185q-90 0 -151.5 23t-92.5 51.5t-47.5 83.5t-18.5 89t-2 100v307 q0 139 -20 163.5t-139 24.5z" />
<glyph unicode="v" horiz-adv-x="1079" d="M39 819v64q92 -6 199 -6q39 0 223 6v-64q-117 0 -117 -53q0 -8 12 -35l230 -571l209 522q12 35 12 49q0 35 -23.5 60.5t-74.5 27.5v64q104 -6 178 -6q84 0 153 6v-64q-61 0 -104 -27.5t-56.5 -51t-27.5 -58.5l-268 -666q-16 -39 -43 -39q-18 0 -25.5 7.5t-17.5 31.5 l-295 727q-20 51 -46 63.5t-118 12.5z" />
<glyph unicode="w" horiz-adv-x="1478" d="M37 819v64q111 -6 190 -6q39 0 224 6v-64q-121 0 -121 -55q0 -12 10 -37l195 -547l176 496q-37 100 -47 112q-25 31 -129 31v64q92 -6 182 -6q35 0 213 6v-64q-121 0 -121 -55q0 -8 10 -39l203 -571l186 524q10 27 11 43q0 45 -32 70.5t-87 27.5v64q117 -6 190 -6 q82 0 150 6v-64q-127 -4 -172 -131l-240 -672q-23 -37 -41 -39q-27 0 -41 39l-209 582l-207 -580q-8 -25 -15 -33t-25.5 -8t-26.5 10.5t-17 35.5l-258 725q-18 47 -44.5 59t-106.5 12z" />
<glyph unicode="x" horiz-adv-x="1079" d="M25 0v63q160 0 262 123l192 244l-203 264q-72 92 -103.5 108.5t-137.5 16.5v64q84 -6 194 -6q61 0 222 6v-64q-72 -4 -72 -51q0 -16 18 -37l160 -207l127 160q31 37 31 72q0 57 -60 63v64q80 -6 197 -6q88 0 168 6v-64q-156 -4 -244 -106q-39 -43 -188 -232l274 -354 q33 -43 70 -53.5t125 -10.5v-63q-92 6 -197 6q-37 0 -221 -6v63q37 2 55.5 18.5t18.5 33.5q0 8 -43 67l-156 205q-156 -184 -176 -227q-8 -18 -8 -33q0 -55 59 -64v-63q-147 6 -194 6q-90 0 -170 -6z" />
<glyph unicode="y" horiz-adv-x="1079" d="M39 -254q0 43 25.5 65.5t60.5 22.5q37 0 61.5 -23.5t24.5 -62.5q0 -76 -80 -86q39 -37 96 -37q61 0 110.5 45t71 88t52.5 121q29 61 51 121l-307 748q-20 49 -51 60t-115 11v64q92 -6 199 -6q63 0 223 6v-64q-115 0 -115 -53q0 -6 12 -37l228 -551l207 504q12 29 12 49 q0 84 -96 88v64q135 -6 178 -6q84 0 153 6v-64q-137 0 -190 -131l-361 -874q-98 -233 -262 -234q-78 0 -133 48t-55 118z" />
<glyph unicode="z" horiz-adv-x="909" d="M57 29q0 14 19 37l571 772h-233q-162 0 -214.5 -59.5t-62.5 -225.5h-51l23 330h655q23 0 32 -1t15 -7.5t6 -18.5t-18 -35l-570 -770h242q170 0 227.5 71t71.5 261h51l-35 -383h-675q-33 0 -43.5 4.5t-10.5 24.5z" />
<glyph unicode="{" d="M150 512q0 8 3 13t10 7.5t15 3.5t22.5 3t26.5 4q74 14 134.5 63t72.5 125q4 20 4 60v446q0 139 99 213q119 86 297 86q37 0 36 -23q0 -14 -13 -18t-45 -8t-56 -12q-174 -57 -174 -224v-463q0 -211 -244 -276q244 -63 244 -264v-455q0 -49 4 -74q14 -70 77.5 -121 t157.5 -61q49 -6 49 -24q0 -25 -36 -25h-3q-139 0 -257.5 62.5t-133.5 181.5q-2 20 -2 59v449q0 68 -26.5 119t-69.5 75.5t-70.5 35.5t-56.5 15q-6 0 -17.5 1t-18.5 2t-14 3.5t-11 7.5t-4 13z" />
<glyph unicode="|" horiz-adv-x="569" d="M242 -449v1907q0 76 41 76t41 -61v-1907q0 -41 -8.5 -58.5t-32.5 -17.5q-41 0 -41 61z" />
<glyph unicode="}" d="M150 -489q0 14 13 19t45 8t56 11q174 57 174 224v463q0 213 244 276q-80 20 -133 56t-74.5 78t-29 70.5t-7.5 57.5v457q0 49 -4 74q-14 70 -77.5 121t-157.5 61q-49 6 -49 24q0 25 36 25h2q141 0 260 -62.5t132 -181.5q2 -20 2 -59v-449q0 -68 26.5 -119t68.5 -75.5 t70.5 -35.5t57.5 -15q6 0 17.5 -1t18.5 -3l14 -5q7 -2 11 -7t4 -11q0 -8 -3 -13t-10 -7.5t-15 -3.5l-24 -3q-15 -2 -27 -4q-72 -14 -132.5 -63t-72.5 -125q-4 -20 -4 -60v-446q0 -41 -3.5 -65.5t-27 -68.5t-68.5 -79q-117 -86 -297 -86q-36 0 -36 23z" />
<glyph unicode="~" horiz-adv-x="1251" d="M170 1204q4 4 27.5 32t30.5 35l29 28q22 22 36 29t36.5 19.5t46 16.5t50.5 4q72 0 209 -49t209 -49q66 0 108.5 24.5t91.5 73.5l35 -31q-45 -55 -69.5 -80.5t-76.5 -53t-110 -27.5q-72 0 -209 48t-208 48q-66 0 -109 -23.5t-92 -72.5z" />
<glyph unicode="&#xa1;" horiz-adv-x="569" d="M174 915q0 47 33 78t76 31t74.5 -30.5t31.5 -78.5q0 -45 -32.5 -75.5t-73.5 -30.5q-45 0 -77 32.5t-32 73.5zM174 -336q0 16 8 90l72 834q6 51 29 51q18 0 23 -21.5t13 -123.5q6 -55 9 -91l59 -698q4 -25 4 -41q0 -51 -33.5 -78.5t-74.5 -27.5q-43 0 -76 28.5t-33 77.5z " />
<glyph unicode="&#xa2;" d="M68 440q0 188 134 323.5t335 149.5v179h63v-179q156 -4 249 -61t93 -152q0 -47 -26.5 -72.5t-65.5 -25.5q-41 0 -67.5 27.5t-26.5 66.5q0 80 92 95q-88 66 -248 71v-831q106 8 175 46t90 79l40 74q18 34 33 34q25 0 25 -22q0 -8 -8.5 -32t-33 -61.5t-61.5 -72.5 t-105.5 -62.5t-154.5 -33.5v-179h-63v179q-201 14 -335 146t-134 314zM240 442q0 -152 72.5 -265.5t224.5 -143.5v827q-145 -18 -221 -133t-76 -285z" />
<glyph unicode="&#xa3;" horiz-adv-x="1308" d="M113 98q0 82 71.5 134.5t171.5 52.5h2q53 0 134 -25q4 59 4 189v231h-123q-39 0 -47 14q-14 20 4 39q8 10 39 10h127v301q0 133 58 228.5t136 134.5t162 39q150 0 245 -116t95 -255q0 -55 -30.5 -78.5t-63.5 -23.5q-39 0 -66.5 26.5t-27.5 65.5q0 41 27.5 67.5t66.5 26.5 q12 0 33 -4q-33 119 -110 181.5t-165 62.5q-111 0 -174 -109q-43 -76 -43 -254v-293h174q53 -12 57 -30q0 -33 -49 -33h-182v-301q0 -96 -29 -170q16 -8 79 -42t97.5 -50.5t89 -32.5t99.5 -16q88 0 147.5 54t71.5 128q8 53 27 53q2 0 14 -4q14 -8 14 -33q0 -96 -82 -192.5 t-219 -96.5q-78 0 -151.5 30t-233.5 116q-113 -145 -278 -146q-76 0 -124 34t-48 87zM190 96q0 -31 29 -51t68 -20q55 0 104 37.5t76 103.5q-78 27 -137 27q-68 0 -104 -30t-36 -67z" />
<glyph unicode="&#xa4;" horiz-adv-x="1507" d="M94 -49q0 14 94 106l121 123q-145 166 -145 387q0 211 145 387l-104 105q-76 74 -93.5 94t-17.5 34.5t11.5 26t23.5 11.5h4h8q4 0 8.5 -2t7.5 -5.5t10 -8.5t12 -10l17 -16q11 -11 20 -21.5t27 -26.5l33 -33l91 -90h2q164 143 385 143q213 0 387 -143q190 193 211 207 q12 6 22 6q12 0 24.5 -9.5t12.5 -29.5q0 -16 -17.5 -37t-81.5 -83l-114 -112v-2q143 -170 143 -385q0 -219 -143 -385v-2q160 -158 186.5 -187.5t26.5 -45.5q0 -14 -11 -26.5t-28 -12.5h-4q-10 0 -27.5 15.5t-107.5 105.5l-94 94q-166 -145 -385 -145.5t-385 145.5h-2 q-193 -195 -209 -207q-14 -8 -25 -8q-39 0 -39 43zM246 567q0 -205 146.5 -356.5t361.5 -151.5q205 0 355.5 147.5t150.5 360.5q0 205 -146.5 355.5t-359.5 150.5q-207 0 -357.5 -146.5t-150.5 -359.5z" />
<glyph unicode="&#xa5;" horiz-adv-x="1536" d="M23 1399q233 -6 262 -6q154 0 307 6v-64h-12q-129 0 -129 -53q0 -14 231 -389h303l96 156q82 131 96.5 158.5t14.5 49.5q0 29 -26.5 52.5t-88.5 25.5v64q119 -6 240 -6q16 0 194 6v-64q-57 0 -100 -13t-72.5 -28.5t-63.5 -60.5t-55 -80l-71 -117l-88 -143h260 q70 0 70 -23l-2 -4v-6q-8 -14 -50 -14h-254h-12h-11h-9q-6 0 -7.5 -1t-6.5 -2t-6 -3t-5 -5.5t-6 -6.5t-5 -8t-7 -11q-121 -193 -137.5 -222.5t-16.5 -60.5v-30h483q49 0 50 -25q0 -23 -46 -22h-487v-291q0 -66 34 -80.5t157 -14.5h20v-63q-258 6 -287 6q-158 0 -313 -6v63 h20q125 0 158 15.5t33 81.5v289h-488q-47 0 -47 22q0 25 52 25h483v32q0 29 -19.5 63t-134.5 218q-16 25 -25.5 31t-27.5 6h-276q-51 0 -52 24q0 23 70 23h260l-217 354q-39 59 -76 73.5t-157 14.5v64zM711 846l123 -201l122 201h-245z" />
<glyph unicode="&#xa6;" horiz-adv-x="342" d="M129 287q0 66 41 65.5t41 -61.5v-737q0 -63 -41 -63.5t-41 60.5v736zM129 735v735q0 63 41 63.5t41 -63.5v-735q0 -63 -41 -63t-41 63z" />
<glyph unicode="&#xa7;" horiz-adv-x="909" d="M141 522q0 182 162 277q-162 154 -162 327q0 137 93.5 227.5t220.5 90.5q121 0 201.5 -75t80.5 -169q0 -41 -23.5 -59.5t-47.5 -18.5q-29 0 -49.5 20.5t-20.5 51.5q0 14 4 27.5t22.5 28t49.5 16.5q-35 74 -99.5 102.5t-115.5 28.5q-102 0 -163 -83t-61 -179 q0 -25 8.5 -48.5t18.5 -41t32.5 -37t35 -28.5t43 -25.5t40 -20.5t42.5 -16l32 -15q109 -49 195 -154.5t86 -246.5q0 -184 -162 -277q162 -154 162 -329q0 -131 -90 -223.5t-223 -92.5q-121 0 -202 75t-81 167q0 43 23.5 60.5t48.5 17.5q29 0 49 -19.5t20 -50.5 q0 -14 -4 -27.5t-22.5 -28t-48.5 -16.5q35 -76 99 -104.5t116 -28.5q102 0 162.5 84t60.5 178q0 37 -19.5 72t-38 54.5t-62.5 44t-58 30.5l-60 25q-10 4 -14 6q-111 49 -196 154.5t-85 248.5zM233 528q0 -43 18.5 -77.5t54.5 -60t68 -43t79 -38t67 -30.5q25 -10 33 -11 q31 0 76 70t45 156q0 43 -19.5 79.5t-57.5 62.5t-69.5 43t-78 36.5t-62.5 27.5q-20 12 -33 13q-31 0 -76 -70t-45 -158z" />
<glyph unicode="&#xa8;" d="M203 1241q0 47 32.5 78t75.5 31t75 -31t32 -78q0 -45 -33 -75.5t-74 -30.5q-45 0 -76.5 32.5t-31.5 73.5zM602 1241q0 47 32 78t75 31q45 0 76.5 -31t31.5 -78q0 -45 -32.5 -75.5t-73.5 -30.5q-47 0 -78 31.5t-31 74.5z" />
<glyph unicode="&#xa9;" horiz-adv-x="2275" d="M113 512q0 287 134 532.5t370.5 391t519.5 145.5q203 0 390 -83t326.5 -223t222.5 -340t83 -423q0 -287 -134.5 -531.5t-371 -391t-518.5 -146.5q-203 0 -390.5 83t-326.5 224t-222 341t-83 421zM195 510q0 -264 124.5 -491.5t342 -360.5t471.5 -133q389 0 666.5 287.5 t277.5 699.5q0 266 -125 493.5t-341 360.5t-472 133q-252 0 -468 -128t-346 -357.5t-130 -503.5zM567 489q0 221 174 378t412 157q168 0 291 -113h2l19 21q11 12 18.5 19t16.5 17.5t14.5 15.5l13.5 12.5l12 11.5t9 8t9.5 5t8.5 1q25 0 24 -43v-336q0 -47 -30 -47 q-20 0 -29 14l-2 13q-2 12 -8 32l-15 47q-8 27 -23.5 55.5t-33.5 57.5t-45 55.5t-58.5 46t-74.5 32t-92 12.5q-51 0 -102.5 -11.5t-107 -44.5t-97.5 -83t-68.5 -135t-26.5 -195q0 -119 31 -208t75 -138.5t102 -79t104.5 -39t91.5 -9.5q137 0 239.5 83t114.5 216q6 49 31 50 q23 0 22 -39q0 -125 -115.5 -249t-318.5 -124q-221 0 -404.5 148t-183.5 386z" />
<glyph unicode="&#xaa;" horiz-adv-x="909" d="M84 889q0 94 133 141t336 51v93q0 184 -50 266t-112 82q-27 0 -56.5 -10.5t-70.5 -59.5t-59 -131q10 2 33 2q41 0 67.5 -26.5t26.5 -65.5t-26.5 -66.5t-67.5 -27.5q-35 0 -65 24.5t-30 81.5q0 39 12.5 89t38 105.5t79 93.5t124.5 38q109 0 204 -96.5t95 -288.5v-297 q0 -20 3 -31.5t20.5 -22t48.5 -10.5q47 0 61.5 13.5t16.5 44.5v51h51v-47q0 -74 -45 -99.5t-172 -27.5h-27q-39 0 -55 16.5t-29 65.5q-68 -94 -217 -95q-268 1 -268 144zM94 662q0 25 39 24h635q45 0 45 -22q0 -25 -45 -25h-633q-41 0 -41 23zM246 889q0 -43 38 -69.5 t89 -26.5q59 0 98 16t55.5 43t21.5 46.5t5 37.5v102q-131 -4 -219 -42.5t-88 -106.5z" />
<glyph unicode="&#xab;" horiz-adv-x="1136" d="M231 440q0 6 3.5 12.5t13.5 14.5t22.5 16.5t36.5 27.5l49 38q102 82 194 167l131 124q40 39 52 39q18 0 19 -17q0 -23 -123 -165t-250 -257q74 -63 223.5 -227t149.5 -193q0 -16 -19 -16q-4 0 -8 1t-9 5t-10.5 7t-13.5 11.5t-14 15.5t-20 21l-23 23q-86 84 -183.5 165 t-154.5 124t-59 47q-7 6 -7 16zM588 440q0 6 2 10.5t9 12.5t15 15l27 23q18 15 35 31q84 74 148 143l87 94q23 26 37 26q16 0 17 -17q0 -25 -88.5 -136.5t-176.5 -201.5q66 -63 165.5 -186t99.5 -150q0 -16 -16.5 -16t-34.5 20l-81 89q-65 70 -157 153l-28 25l-20 18 q-7 6 -15.5 12.5t-11.5 10.5t-6 7t-4 6t-2 5t-1 6z" />
<glyph unicode="&#xac;" horiz-adv-x="1366" d="M115 688q0 41 59 41h1012q37 0 50 -14.5t13 -52.5v-414q0 -61 -41 -61.5t-41 57.5v403h-987q-65 0 -65 41z" />
<glyph unicode="&#xad;" horiz-adv-x="342" d="M20 381v121h545v-121h-545z" />
<glyph unicode="&#xae;" horiz-adv-x="2275" d="M113 512q0 287 134 532.5t370.5 391t519.5 145.5q203 0 390 -83t326.5 -223t222.5 -340t83 -423q0 -287 -134.5 -531.5t-371 -391t-518.5 -146.5q-203 0 -390.5 83t-326.5 224t-222 341t-83 421zM195 510q0 -264 124.5 -491.5t342 -360.5t471.5 -133q389 0 666.5 287.5 t277.5 699.5q0 266 -125 493.5t-341 360.5t-472 133q-252 0 -468 -128t-346 -357.5t-130 -503.5zM496 0v63h26q121 0 153 16.5t32 80.5v659q0 61 -31 78.5t-156 17.5h-24v64h548q262 0 389.5 -83t127.5 -181q0 -70 -71 -131.5t-216 -98.5q49 -16 83 -37.5t53.5 -43 t32.5 -56.5t19 -60.5t16.5 -74.5t20.5 -84q33 -127 113 -127q41 0 69.5 27.5t38 57.5t15.5 65l6 32q8 14 20 15q27 0 27 -35q0 -68 -44 -138.5t-140 -70.5q-150 0 -240 55.5t-88 188.5v84q0 92 -60.5 138t-158.5 46h-174v-307q0 -61 30.5 -79t161.5 -18h19v-63 q-152 6 -299 6t-299 -6zM883 512h153q49 0 83 2t82 13.5t77 32t50.5 60t21.5 95.5q0 115 -73 157.5t-220 42.5h-82q-61 0 -76.5 -18t-15.5 -74v-311z" />
<glyph unicode="&#xaf;" d="M141 1329v66h738v-66h-738z" />
<glyph unicode="&#xb0;" horiz-adv-x="681" d="M113 1171q0 94 66.5 161t160.5 67q96 0 161.5 -68.5t65.5 -156.5q0 -94 -66.5 -161t-160.5 -67q-96 0 -161.5 66.5t-65.5 158.5zM195 1171q0 -59 43 -101t102 -42t101 41t42 102q0 59 -42 102.5t-101 43.5t-102 -42.5t-43 -103.5z" />
<glyph unicode="&#xb1;" horiz-adv-x="1593" d="M115 41q0 39 57 41h582v559h-578q-61 0 -61 41t61 41h578v577q0 61 41 61.5t41 -61.5v-577h577q61 0 61.5 -41t-61.5 -41h-577v-559h573q66 0 66 -43q0 -37 -60 -39h-1239q-61 0 -61 41z" />
<glyph unicode="&#xb2;" horiz-adv-x="909" d="M102 805q0 29 8.5 38t41.5 29l108 70l97 62l79 52q47 32 68 50l48 45q28 27 39 48.5t19 48t8 55.5q0 94 -64.5 154.5t-162.5 60.5q-92 0 -166 -50q39 -6 65.5 -33.5t26.5 -72.5t-31.5 -76t-74.5 -31q-45 0 -77 30t-32 81q0 96 93.5 155.5t234.5 59.5q164 0 270.5 -77 t106.5 -199q0 -55 -22.5 -100.5t-68.5 -79t-84 -54t-104.5 -50.5l-91.5 -42l-194 -109h260q98 0 164 4q43 2 54 30t36 165h51l-57 -358h-648v94z" />
<glyph unicode="&#xb3;" horiz-adv-x="909" d="M84 885q0 53 34 84.5t81 31.5t80.5 -32.5t33.5 -81.5q0 -76 -80 -109q92 -31 195 -30q182 0 182 182q0 193 -182 192h-43q-43 0 -43 25q0 14 21.5 20.5t56.5 9.5t51 9q47 20 75.5 75.5t28.5 127.5q0 76 -39.5 108.5t-97 32.5t-120 -34t-103.5 -118q6 0 15.5 2t13.5 2 q43 0 73.5 -29.5t30.5 -74.5t-29.5 -74.5t-72.5 -29.5q-37 0 -71 25.5t-34 84.5q0 113 85 205t223 92q127 0 221 -56.5t94 -142.5q0 -152 -209 -229q98 -16 182 -73.5t84 -145.5q0 -94 -103.5 -170t-277.5 -76q-199 0 -277.5 59.5t-78.5 137.5z" />
<glyph unicode="&#xb4;" d="M438 1044l117 115q113 111 140.5 133.5t49.5 22.5q31 0 51.5 -23.5t20.5 -52.5t-23.5 -47t-146.5 -88l-94 -53q-45 -27 -84 -47z" />
<glyph unicode="&#xb5;" horiz-adv-x="1136" d="M63 -336h21q96 0 117.5 18.5t21.5 86.5v927q0 80 -24.5 99.5t-106.5 23.5h-29v62l304 22v-661q0 -53 4 -83t19.5 -66t54 -52t100.5 -16q92 0 170 78.5t78 252.5q0 8 -1 24.5t-1 27.5v309q-2 63 -31 82.5t-117 19.5h-10v62l301 22v-733q0 -66 29.5 -86.5t119.5 -20.5h11 v-63l-297 -23v181q-82 -180 -265 -181q-86 0 -165 27v-248q0 -59 24.5 -75.5t122.5 -16.5h10v-63q-117 6 -237 6h-8q-96 0 -216 -6v63z" />
<glyph unicode="&#xb6;" horiz-adv-x="1251" d="M113 948q0 76 29.5 155t90 152.5t169 119.5t249.5 46h471q68 0 68 -41t-64 -41h-104v-1656h96q23 0 35 -1t24.5 -11.5t12.5 -28.5q0 -14 -9.5 -23.5t-18.5 -11.5t-19 -4l-13 -2h-522q-59 0 -59 41q0 18 12 28.5t24.5 11.5t39.5 1h92v788q-256 12 -430 141t-174 336z M799 -317h141v1656h-141v-1656z" />
<glyph unicode="&#xb7;" horiz-adv-x="569" d="M174 496q0 43 31 74.5t78 31.5q43 0 74.5 -29.5t31.5 -76.5q0 -45 -32.5 -77t-73.5 -32q-47 0 -78 33t-31 76z" />
<glyph unicode="&#xb8;" horiz-adv-x="909" d="M211 -371h25q158 0 236.5 24.5t78.5 88.5q0 41 -39 74.5t-129 38.5v145h143v-111q168 -39 168 -147q0 -160 -393 -160h-90v47z" />
<glyph unicode="&#xb9;" horiz-adv-x="909" d="M141 1364v63q94 2 168 27t108 52l61 50q28 23 40 23q10 0 17.5 -4t9.5 -17.5t2 -18.5v-23v-648q2 -61 32.5 -77.5t147.5 -16.5h39v-63h-104l79 2l-159 2h-254l-133 -4h-25v63h39q119 0 151.5 17.5t32.5 78.5v555q-119 -59 -252 -61z" />
<glyph unicode="&#xba;" horiz-adv-x="909" d="M55 1149q0 164 112 292t286 128q162 0 279.5 -121t117.5 -299q0 -166 -114.5 -285t-282.5 -119q-172 0 -285 121t-113 283zM94 662q0 25 37 24h625q57 0 57 -22q0 -25 -47 -25h-631q-41 0 -41 23zM227 1153q0 -213 74 -289q59 -66 152 -65q102 0 159 71q59 66 68 228v116 q-4 127 -35 189q-16 33 -41 57q-66 61 -151 62q-45 0 -80 -17q-45 -16 -82 -57q-63 -76 -64 -268v-27z" />
<glyph unicode="&#xbb;" horiz-adv-x="1136" d="M168 104q0 23 89 134.5t175 201.5q-78 78 -171 197t-93 141q0 14 14 15q20 0 39 -23l74 -79q39 -42 42 -46t37 -37t54 -50l96 -85q23 -18 23 -33q0 -12 -23 -30l-128 -115q-42 -39 -57 -54.5t-51 -56.5l-67 -73q-23 -23 -37 -23q-16 0 -16 16zM383 20q0 25 127 169.5 t246 250.5q-86 76 -229.5 233.5t-143.5 188.5q0 16 18 17q6 0 11.5 -3.5t13.5 -10.5t16 -15l25 -25q16 -16 33 -30q113 -109 217 -194l145 -117q41 -32 41 -44q0 -6 -3 -11t-13 -14t-22.5 -17.5t-37.5 -27.5l-49 -38q-100 -78 -191 -164l-132 -125q-41 -39 -54 -39 q-18 0 -18 16z" />
<glyph unicode="&#xbc;" horiz-adv-x="909" d="M16 569q0 41 66 41h735q72 0 72 -41t-60 -41h-753q-60 0 -60 41zM55 -143q0 6 4 14t6.5 11l13.5 16.5t17 21.5l434 531q23 29 32 38t21.5 16t26.5 7q25 0 31 -12.5t6 -38.5v-590h205v-64h-205v-53q0 -55 31 -72.5t137 -17.5h31v-63q-121 6 -266.5 6t-290.5 -6v63h28 q106 0 137 16.5t33 73.5v53h-432v31v19zM119 -129h379v463zM141 1436v63q129 0 210 20.5t115 41t48 20.5q16 0 23.5 -11t8.5 -20.5t1 -33.5v-666q0 -66 35.5 -80t158.5 -14h25v-64q-154 6 -307 6q-27 0 -291 -6v64h29q129 0 162.5 16t33.5 80v614q-102 -30 -252 -30z" />
<glyph unicode="&#xbd;" horiz-adv-x="909" d="M16 569q0 41 66 41h735q72 0 72 -41t-60 -41h-753q-60 0 -60 41zM100 -377q0 16 10.5 33.5t40.5 44.5l64 55l102 87l138 122q164 145 163 277q0 84 -64.5 135t-170.5 51q-68 0 -135 -25q68 -29 67 -100q0 -47 -30.5 -76.5t-75.5 -29.5q-47 0 -77 31.5t-30 76.5 q0 76 77 131.5t245 55.5q205 0 293 -75t88 -171q0 -49 -14.5 -88t-53.5 -76t-62.5 -56.5t-90 -61.5t-88.5 -58l-201 -146h145q248 0 267 19q20 18 47 180h51l-55 -358h-650v22zM141 1436v63q129 0 210 20.5t115 41t48 20.5q16 0 23.5 -11t8.5 -20.5t1 -33.5v-666 q0 -66 35.5 -80t158.5 -14h25v-64q-154 6 -307 6q-27 0 -291 -6v64h29q129 0 162.5 16t33.5 80v614q-102 -30 -252 -30z" />
<glyph unicode="&#xbe;" horiz-adv-x="909" d="M16 569q0 41 66 41h735q72 0 72 -41t-60 -41h-753q-60 0 -60 41zM55 -143q0 6 4 14t6.5 11l13.5 16.5t17 21.5l434 531q23 29 32 38t21.5 16t26.5 7q25 0 31 -12.5t6 -38.5v-590h205v-64h-205v-53q0 -55 31 -72.5t137 -17.5h31v-63q-121 6 -266.5 6t-290.5 -6v63h28 q106 0 137 16.5t33 73.5v53h-432v31v19zM84 848q0 51 34 83t81 32t80.5 -32t33.5 -81q0 -76 -84 -113q98 -33 201 -32q180 0 180 196q0 203 -180 203h-47q-41 0 -41 22q0 20 34 22.5t84 17t81 67.5q37 66 37 149q0 63 -35 104.5t-107 41.5q-121 0 -203 -82h3q61 0 87.5 -33 t26.5 -70q0 -45 -29.5 -74.5t-74.5 -29.5q-43 0 -74 28.5t-31 78.5q0 102 90.5 168.5t217 66.5t222 -57.5t95.5 -147.5q0 -156 -213 -243q106 -18 187 -79t81 -151q0 -111 -113.5 -184.5t-269.5 -73.5q-139 0 -246.5 47t-107.5 156zM119 -129h379v463z" />
<glyph unicode="&#xbf;" horiz-adv-x="966" d="M113 -141q0 53 17 97t34.5 65.5t55.5 55.5t48 46q160 170 160 440v31q0 27 9 38t22 7q10 -4 13 -6t6 -13.5t3 -33.5v-13q0 -319 -133 -516q-25 -37 -34 -53t-19 -57t-10 -101q0 -55 4 -86.5t20.5 -66.5t53 -51.5t96.5 -16.5q215 0 315 139h-10q-51 0 -75.5 28t-24.5 67 t27.5 65.5t64.5 26.5q35 0 65.5 -23.5t30.5 -77.5q0 -119 -115.5 -194.5t-275.5 -75.5q-104 0 -178 27.5t-108 73t-48 88.5t-14 90zM346 915q0 47 33 78t76 31t74.5 -30.5t31.5 -78.5q0 -45 -32.5 -75.5t-73.5 -30.5q-45 0 -77 32.5t-32 73.5z" />
<glyph unicode="&#xc0;" horiz-adv-x="1536" d="M66 0v63q182 4 229 138l424 1224q8 25 17 33t32 8q12 0 19.5 -2t12.5 -9t7 -11t8 -19l442 -1280q16 -51 49 -66.5t126 -15.5h36v-63q-129 6 -268 6q-221 0 -295 -6v63q170 0 170 62q0 4 -6 29l-108 313h-506l-95 -268q-4 -8 -4 -31q0 -43 40 -74t114 -31v-63 q-197 6 -236 6q-67 0 -208 -6zM477 530h461l-231 666zM479 1690q0 27 19.5 51t50.5 24q18 0 64 -26.5t133 -81.5l147 -90l-23 -49l-84 26l-172 52q-88 28 -98 34q-37 19 -37 60z" />
<glyph unicode="&#xc1;" horiz-adv-x="1536" d="M66 0v63q182 4 229 138l424 1224q8 25 17 33t32 8q12 0 19.5 -2t12.5 -9t7 -11t8 -19l442 -1280q16 -51 49 -66.5t126 -15.5h36v-63q-129 6 -268 6q-221 0 -295 -6v63q170 0 170 62q0 4 -6 29l-108 313h-506l-95 -268q-4 -8 -4 -31q0 -43 40 -74t114 -31v-63 q-197 6 -236 6q-67 0 -208 -6zM477 530h461l-231 666zM586 1567q305 190 323 196q8 2 19 2q33 0 52 -23.5t19 -51.5q0 -37 -32.5 -54.5t-159.5 -56.5l-107 -33q-12 -4 -43.5 -13t-50.5 -13z" />
<glyph unicode="&#xc2;" horiz-adv-x="1536" d="M66 0v63q182 4 229 138l424 1224q8 25 17 33t32 8q12 0 19.5 -2t12.5 -9t7 -11t8 -19l442 -1280q16 -51 49 -66.5t126 -15.5h36v-63q-129 6 -268 6q-221 0 -295 -6v63q170 0 170 62q0 4 -6 29l-108 313h-506l-95 -268q-4 -8 -4 -31q0 -43 40 -74t114 -31v-63 q-197 6 -236 6q-67 0 -208 -6zM477 530h461l-231 666zM494 1559l272 288h2l272 -288l-34 -35h-2l-236 215h-2l-236 -215h-2z" />
<glyph unicode="&#xc3;" horiz-adv-x="1536" d="M66 0v63q182 4 229 138l424 1224q8 25 17 33t32 8q12 0 19.5 -2t12.5 -9t7 -11t8 -19l442 -1280q16 -51 49 -66.5t126 -15.5h36v-63q-129 6 -268 6q-221 0 -295 -6v63q170 0 170 62q0 4 -6 29l-108 313h-506l-95 -268q-4 -8 -4 -31q0 -43 40 -74t114 -31v-63 q-197 6 -236 6q-67 0 -208 -6zM369 1686q6 6 25.5 28.5t26.5 29.5l25 24q18 17 31 24l32 16q19 10 39.5 13.5t45.5 3.5q63 0 183 -38t184 -38q87 0 169 78l35 -33q-4 -4 -23.5 -25.5t-23.5 -26.5t-21.5 -22.5t-25.5 -22.5t-25.5 -17.5t-31.5 -15.5l-34 -7q-19 -4 -40 -4 q-63 0 -184 39t-183 39q-88 0 -170 -78zM477 530h461l-231 666z" />
<glyph unicode="&#xc4;" horiz-adv-x="1536" d="M66 0v63q182 4 229 138l424 1224q8 25 17 33t32 8q12 0 19.5 -2t12.5 -9t7 -11t8 -19l442 -1280q16 -51 49 -66.5t126 -15.5h36v-63q-129 6 -268 6q-221 0 -295 -6v63q170 0 170 62q0 4 -6 29l-108 313h-506l-95 -268q-4 -8 -4 -31q0 -43 40 -74t114 -31v-63 q-197 6 -236 6q-67 0 -208 -6zM459 1667q0 43 30.5 75t77.5 32q43 0 75 -30t32 -77q0 -45 -33 -76.5t-74 -31.5q-47 0 -77.5 32.5t-30.5 75.5zM477 530h461l-231 666zM858 1665q0 47 33 78t74 31q47 0 77.5 -33t30.5 -74q0 -43 -30.5 -75.5t-75.5 -32.5q-41 0 -75 30.5 t-34 75.5z" />
<glyph unicode="&#xc5;" horiz-adv-x="1536" d="M66 0v63q66 2 109.5 15.5t69 44.5t37 53.5t27.5 71.5l365 1046q6 23 22.5 67t22.5 66q-147 55 -148 220q0 84 53.5 152.5t141.5 70.5q86 0 141.5 -67.5t55.5 -155.5q0 -164 -148 -220l24 -69l21 -62l385 -1112q23 -61 37 -81.5t51 -30t127 -9.5h8v-63q-131 6 -262 6 q-150 0 -301 -6v63h4q162 0 162 66q0 8 -4 29q-4 12 -50 142t-56 167h-508q-12 -39 -38 -112l-42 -123q-16 -50 -17 -66q0 -37 37 -68.5t115 -34.5v-63q-119 6 -240 6q-100 0 -202 -6zM475 530h463l-231 666zM623 1649q0 -180 145 -181q57 0 100 39t43 138q0 102 -44 141 t-101 39t-100 -39t-43 -137z" />
<glyph unicode="&#xc6;" horiz-adv-x="1849" d="M66 63q66 2 110.5 15.5t70 43.5t38 53.5t28.5 72.5l392 1085l-177 2v64h1149l58 -461h-54q-10 82 -19 128t-25.5 99.5t-41 79t-64.5 50t-95.5 32.5t-135.5 8h-143q-4 0 -15.5 1t-19.5 1q-66 0 -82 -17t-18 -65v-550h154q49 0 77.5 3t64.5 14t56.5 40t26.5 74q6 35 6 106 h51v-541h-51v23q0 137 -50 177t-181 40h-154v-502q2 -51 23.5 -63.5t84.5 -12.5h183q74 0 130 11.5t96 27t70.5 50t48 63.5t34 89.5t24.5 101l23 122.5h51l-86 -528h-1010v63h17q86 0 112.5 14.5t28.5 67.5v496h-330q-10 -33 -53 -151l-77 -214q-34 -96 -34 -110 q0 -37 36 -67.5t114 -35.5v-63q-117 6 -238 6q-102 0 -204 -6v63zM545 705h307v522q0 33 -2 47t-21.5 31.5t-58.5 23.5z" />
<glyph unicode="&#xc7;" horiz-adv-x="1478" d="M113 700q0 211 102 384t265 266.5t347 93.5q213 0 377 -176q111 174 135 174q4 0 7 -2q18 -4 18 -43v-496q0 -41 -33 -41q-14 0 -22 8q-8 6 -10.5 25.5t-11.5 67t-34 108.5q-59 147 -165.5 229t-239.5 82q-150 0 -273.5 -87t-185.5 -224q-66 -150 -65 -371 q0 -164 38.5 -289.5t96 -197.5t133.5 -118t138.5 -60.5t121.5 -14.5q170 0 305 121t154 322q0 37 12 47q12 4 16 4q25 0 25 -43q0 -66 -25.5 -141.5t-77 -152.5t-145.5 -136t-213 -80v-70q170 -31 170 -147q0 -90 -109.5 -125t-347.5 -35h-28v47h24q158 0 237 24.5t79 86.5 q0 43 -38 76.5t-130 38.5v104q-287 31 -467 245.5t-180 495.5z" />
<glyph unicode="&#xc8;" horiz-adv-x="1392" d="M68 0v63h49q111 0 136.5 18.5t25.5 78.5v1073q0 59 -26 77.5t-136 18.5h-49v64h1153l57 -461h-51q-14 117 -32.5 184.5t-63 119.5t-117 72.5t-189.5 20.5h-264q-70 0 -85 -14.5t-15 -67.5v-491h184q141 0 181 49t40 190h52v-542h-52q0 139 -40 189t-181 50h-184v-547 q0 -53 15.5 -67.5t84.5 -14.5h273q88 0 152.5 11.5t109.5 40t75.5 61.5t52 92.5t34 114.5t26.5 145h51l-86 -528h-1181zM479 1690q0 27 19.5 51t50.5 24h2q23 0 209 -114l133 -84l-23 -47q-332 98 -354 110q-37 19 -37 60z" />
<glyph unicode="&#xc9;" horiz-adv-x="1392" d="M68 0v63h49q111 0 136.5 18.5t25.5 78.5v1073q0 59 -26 77.5t-136 18.5h-49v64h1153l57 -461h-51q-14 117 -32.5 184.5t-63 119.5t-117 72.5t-189.5 20.5h-264q-70 0 -85 -14.5t-15 -67.5v-491h184q141 0 181 49t40 190h52v-542h-52q0 139 -40 189t-181 50h-184v-547 q0 -53 15.5 -67.5t84.5 -14.5h273q88 0 152.5 11.5t109.5 40t75.5 61.5t52 92.5t34 114.5t26.5 145h51l-86 -528h-1181zM614 1567q305 190 324 196q8 2 18 2q33 0 52.5 -23.5t19.5 -51.5q0 -37 -32.5 -54.5t-159.5 -56.5l-107 -33q-12 -4 -44 -13t-50 -13z" />
<glyph unicode="&#xca;" horiz-adv-x="1392" d="M68 0v63h49q111 0 136.5 18.5t25.5 78.5v1073q0 59 -26 77.5t-136 18.5h-49v64h1153l57 -461h-51q-14 117 -32.5 184.5t-63 119.5t-117 72.5t-189.5 20.5h-264q-70 0 -85 -14.5t-15 -67.5v-491h184q141 0 181 49t40 190h52v-542h-52q0 139 -40 189t-181 50h-184v-547 q0 -53 15.5 -67.5t84.5 -14.5h273q88 0 152.5 11.5t109.5 40t75.5 61.5t52 92.5t34 114.5t26.5 145h51l-86 -528h-1181zM436 1559l275 288h2l272 -288l-37 -35l-235 215h-2l-236 -215h-2z" />
<glyph unicode="&#xcb;" horiz-adv-x="1392" d="M68 0v63h49q111 0 136.5 18.5t25.5 78.5v1073q0 59 -26 77.5t-136 18.5h-49v64h1153l57 -461h-51q-14 117 -32.5 184.5t-63 119.5t-117 72.5t-189.5 20.5h-264q-70 0 -85 -14.5t-15 -67.5v-491h184q141 0 181 49t40 190h52v-542h-52q0 139 -40 189t-181 50h-184v-547 q0 -53 15.5 -67.5t84.5 -14.5h273q88 0 152.5 11.5t109.5 40t75.5 61.5t52 92.5t34 114.5t26.5 145h51l-86 -528h-1181zM403 1665q0 47 33 78t76 31t74.5 -31t31.5 -78q0 -45 -32.5 -75.5t-73.5 -30.5q-45 0 -77 32.5t-32 73.5zM801 1665q0 47 32.5 78t75.5 31t75 -31 t32 -78q0 -45 -33 -75.5t-74 -30.5q-45 0 -76.5 32.5t-31.5 73.5z" />
<glyph unicode="&#xcc;" horiz-adv-x="739" d="M57 0v63h54q115 0 141.5 18.5t26.5 78.5v1079q0 59 -27 77.5t-141 18.5h-54v64q72 -6 314 -6q240 0 311 6v-64h-53q-115 0 -141.5 -18.5t-26.5 -77.5v-1079q0 -59 26.5 -78t141.5 -19h53v-63q-72 6 -313 6q-240 0 -312 -6zM109 1690q0 27 20.5 51t50.5 24q23 0 144 -75 l104 -66l92 -57l-20 -49q-18 4 -303 94q-31 10 -44.5 15t-28.5 21.5t-15 41.5z" />
<glyph unicode="&#xcd;" horiz-adv-x="739" d="M57 0v63h54q115 0 141.5 18.5t26.5 78.5v1079q0 59 -27 77.5t-141 18.5h-54v64q72 -6 314 -6q240 0 311 6v-64h-53q-115 0 -141.5 -18.5t-26.5 -77.5v-1079q0 -59 26.5 -78t141.5 -19h53v-63q-72 6 -313 6q-240 0 -312 -6zM166 1567l158 98q160 100 184 100 q31 0 50.5 -24.5t19.5 -50.5q0 -25 -15.5 -42.5t-29 -22.5t-41.5 -13l-304 -94z" />
<glyph unicode="&#xce;" horiz-adv-x="739" d="M57 0v63h54q115 0 141.5 18.5t26.5 78.5v1079q0 59 -27 77.5t-141 18.5h-54v64q72 -6 314 -6q240 0 311 6v-64h-53q-115 0 -141.5 -18.5t-26.5 -77.5v-1079q0 -59 26.5 -78t141.5 -19h53v-63q-72 6 -313 6q-240 0 -312 -6zM94 1561l273 286h2l272 -288l-37 -35l-235 215 h-2l-236 -215z" />
<glyph unicode="&#xcf;" horiz-adv-x="739" d="M57 0v63h54q115 0 141.5 18.5t26.5 78.5v1079q0 59 -27 77.5t-141 18.5h-54v64q72 -6 314 -6q240 0 311 6v-64h-53q-115 0 -141.5 -18.5t-26.5 -77.5v-1079q0 -59 26.5 -78t141.5 -19h53v-63q-72 6 -313 6q-240 0 -312 -6zM61 1665q0 47 33 78t74 31q45 0 76.5 -31 t31.5 -78q0 -45 -32.5 -75.5t-73.5 -30.5q-47 0 -78 31.5t-31 74.5zM459 1665q0 47 31.5 78t74.5 31q41 0 75 -32t34 -77t-33 -75.5t-74 -30.5q-47 0 -77.5 31.5t-30.5 74.5z" />
<glyph unicode="&#xd0;" horiz-adv-x="1564" d="M70 0v63h22q121 0 154 15.5t35 77.5v499q-18 0 -55.5 -1t-53.5 -1q-63 0 -77.5 4.5t-22.5 20.5v10q0 29 49 29q16 2 53 2q16 0 52 -1t55 -1v526q-2 59 -34 75.5t-155 16.5h-22v64h710q201 0 342 -86q152 -94 239 -264t87 -361q0 -264 -159 -459.5t-398 -224.5 q-33 -4 -100 -4h-721zM459 137q0 -51 25.5 -62.5t117.5 -11.5h150q262 0 391 193q100 145 100 436q0 303 -106 455q-137 188 -385 188h-35q-20 0 -57 1t-58 1h-20q-76 0 -99.5 -12t-23.5 -63v-545h340q45 -4 45 -31t-47 -31h-338v-518z" />
<glyph unicode="&#xd1;" horiz-adv-x="1536" d="M68 63q74 0 121 14.5t64 42t21.5 46t4.5 49.5v1069q0 29 -7.5 36t-42.5 11q-61 4 -102 4h-59v64h348q29 0 37 -4t22 -23l723 -1063v875q0 31 -4 49t-21.5 46t-64.5 42t-121 14v64q215 -6 239.5 -6t239.5 6v-64q-74 0 -121 -14t-64 -42t-21.5 -46.5t-4.5 -48.5v-1131 q0 -33 -4 -43t-24 -10q-14 0 -35 27l-836 1228q-8 12 -20 25v-1065q0 -31 4 -49.5t21.5 -46t64.5 -42t121 -14.5v-63q-215 6 -239.5 6t-239.5 -6v63zM369 1686q6 6 25.5 28.5t26.5 29.5l25 24q18 17 31 24l32 16q19 10 39.5 13.5t45.5 3.5q63 0 183 -38t184 -38q87 0 169 78 l35 -33q-4 -4 -23.5 -25.5t-23.5 -26.5t-21.5 -22.5t-25.5 -22.5t-25.5 -17.5t-31.5 -15.5l-34 -7q-19 -4 -40 -4q-63 0 -184 39t-183 39q-88 0 -170 -78z" />
<glyph unicode="&#xd2;" horiz-adv-x="1591" d="M115 694q0 313 200.5 531.5t479.5 218.5q281 0 481.5 -219t200.5 -531q0 -309 -201 -524t-481 -215q-276 0 -478 214t-202 525zM326 723q0 -190 45 -335.5t117.5 -224.5t150.5 -117t158 -38q78 0 154.5 37t149.5 115t119 224t46 339q0 150 -32 270.5t-82 193.5 t-114.5 121t-125 66.5t-117.5 18.5q-72 0 -147 -32t-150.5 -102.5t-123.5 -209t-48 -326.5zM563 1690q0 27 19.5 51t50.5 24h2q23 0 209 -114l133 -84l-23 -47q-332 98 -354 110q-37 19 -37 60z" />
<glyph unicode="&#xd3;" horiz-adv-x="1591" d="M115 694q0 313 200.5 531.5t479.5 218.5q281 0 481.5 -219t200.5 -531q0 -309 -201 -524t-481 -215q-276 0 -478 214t-202 525zM326 723q0 -190 45 -335.5t117.5 -224.5t150.5 -117t158 -38q78 0 154.5 37t149.5 115t119 224t46 339q0 150 -32 270.5t-82 193.5 t-114.5 121t-125 66.5t-117.5 18.5q-72 0 -147 -32t-150.5 -102.5t-123.5 -209t-48 -326.5zM614 1567q305 190 324 196q8 2 18 2q31 0 51.5 -24.5t20.5 -50.5q0 -37 -35 -55.5t-164 -57.5q-63 -18 -102 -31q-61 -20 -92 -28z" />
<glyph unicode="&#xd4;" horiz-adv-x="1591" d="M115 694q0 313 200.5 531.5t479.5 218.5q281 0 481.5 -219t200.5 -531q0 -309 -201 -524t-481 -215q-276 0 -478 214t-202 525zM326 723q0 -190 45 -335.5t117.5 -224.5t150.5 -117t158 -38q78 0 154.5 37t149.5 115t119 224t46 339q0 150 -32 270.5t-82 193.5 t-114.5 121t-125 66.5t-117.5 18.5q-72 0 -147 -32t-150.5 -102.5t-123.5 -209t-48 -326.5zM522 1559v2l273 286h2l272 -286v-2l-35 -35h-2l-235 215h-2l-236 -215h-2z" />
<glyph unicode="&#xd5;" horiz-adv-x="1591" d="M115 694q0 313 200.5 531.5t479.5 218.5q281 0 481.5 -219t200.5 -531q0 -309 -201 -524t-481 -215q-276 0 -478 214t-202 525zM326 723q0 -190 45 -335.5t117.5 -224.5t150.5 -117t158 -38q78 0 154.5 37t149.5 115t119 224t46 339q0 150 -32 270.5t-82 193.5 t-114.5 121t-125 66.5t-117.5 18.5q-72 0 -147 -32t-150.5 -102.5t-123.5 -209t-48 -326.5zM397 1686q6 6 25.5 28.5t27.5 29.5l25 24q18 17 31 24l32 16q19 10 39.5 13.5t45.5 3.5q63 0 183 -38t183 -38q88 0 170 78l35 -33q-4 -4 -23.5 -25.5t-23.5 -26.5t-21.5 -22.5 t-25.5 -22.5t-25.5 -17.5t-32.5 -15.5l-33 -7q-19 -4 -40 -4q-63 0 -184 39t-183 39q-88 0 -170 -78z" />
<glyph unicode="&#xd6;" horiz-adv-x="1591" d="M115 694q0 313 200.5 531.5t479.5 218.5q281 0 481.5 -219t200.5 -531q0 -309 -201 -524t-481 -215q-276 0 -478 214t-202 525zM326 723q0 -190 45 -335.5t117.5 -224.5t150.5 -117t158 -38q78 0 154.5 37t149.5 115t119 224t46 339q0 150 -32 270.5t-82 193.5 t-114.5 121t-125 66.5t-117.5 18.5q-72 0 -147 -32t-150.5 -102.5t-123.5 -209t-48 -326.5zM489 1665q0 47 32 78t75 31t76 -31t33 -78q0 -45 -33 -75.5t-74 -30.5q-47 0 -78 30.5t-31 75.5zM887 1665q0 47 31.5 78t74.5 31q41 0 75 -32t34 -77t-33 -75.5t-74 -30.5 q-47 0 -77.5 30.5t-30.5 75.5z" />
<glyph unicode="&#xd7;" horiz-adv-x="1593" d="M303 965q0 16 12.5 27.5t22.5 11.5h6q18 0 59 -41l394 -394l393 394q35 41 59 41q20 0 28.5 -12.5t8.5 -22.5q0 -6 -1 -10.5t-3 -9.5t-7 -12l-11 -15q-6 -8 -20 -21l-29 -28l-38 -38l-51 -50l-64 -64l-79 -80l-129 -129l387 -387q45 -45 45 -66q0 -18 -11 -28.5 t-26 -10.5q-20 0 -61 41l-393 394l-383 -385q-49 -49 -70 -50q-14 0 -25.5 10.5t-11.5 26.5q0 14 8 29q6 8 37 39l140 140l247 247l-385 387q-49 46 -49 66z" />
<glyph unicode="&#xd8;" horiz-adv-x="1593" d="M113 694q0 307 198.5 528.5t483.5 221.5q211 0 387 -131l135 200l43 -28l-137 -203v-2q121 -109 187.5 -261.5t66.5 -324.5q0 -305 -199 -522t-483 -217q-201 0 -387 129l-136 -199l-43 29l140 205q-31 25 -63 61.5t-82 108t-80.5 178t-30.5 227.5zM297 692 q0 -137 21.5 -243.5t44 -152.5t57.5 -99l713 1046q-147 156 -338 156q-143 0 -248 -77t-160 -179q-90 -166 -90 -451zM457 154q152 -152 338 -152q143 0 250.5 77t164.5 187q84 160 84 430q0 139 -22.5 247t-45 156t-59.5 101l-710 -1044v-2z" />
<glyph unicode="&#xd9;" horiz-adv-x="1536" d="M68 1335v64q72 -6 303 -6q229 0 301 6v-64h-49q-111 0 -136.5 -18.5t-25.5 -77.5v-780q0 -137 38 -231.5t97 -136.5t107.5 -57.5t95.5 -15.5q156 0 274.5 124t118.5 331v711q0 31 -4 49t-21.5 46t-64.5 42t-121 14v64q221 -6 244 -6q20 0 241 6v-64q-74 0 -121 -13 t-64 -42t-21.5 -49.5t-4.5 -54.5v-656q0 -100 -6 -141q-27 -178 -153.5 -301t-300.5 -123q-211 0 -363.5 148.5t-152.5 363.5v772q0 59 -26 77.5t-136 18.5h-49zM535 1690q0 27 19 51t50 24h4q18 0 152 -82l188 -116l-20 -49q-14 4 -305 94q-68 25 -82 47q-6 15 -6 31z" />
<glyph unicode="&#xda;" horiz-adv-x="1536" d="M68 1335v64q72 -6 303 -6q229 0 301 6v-64h-49q-111 0 -136.5 -18.5t-25.5 -77.5v-780q0 -137 38 -231.5t97 -136.5t107.5 -57.5t95.5 -15.5q156 0 274.5 124t118.5 331v711q0 31 -4 49t-21.5 46t-64.5 42t-121 14v64q221 -6 244 -6q20 0 241 6v-64q-74 0 -121 -13 t-64 -42t-21.5 -49.5t-4.5 -54.5v-656q0 -100 -6 -141q-27 -178 -153.5 -301t-300.5 -123q-211 0 -363.5 148.5t-152.5 363.5v772q0 59 -26 77.5t-136 18.5h-49zM672 1567q305 190 323 196q8 2 19 2q31 0 51 -24.5t20 -50.5q0 -37 -34.5 -55.5t-163.5 -57.5 q-63 -18 -103 -31q-61 -20 -92 -28z" />
<glyph unicode="&#xdb;" horiz-adv-x="1536" d="M68 1335v64q72 -6 303 -6q229 0 301 6v-64h-49q-111 0 -136.5 -18.5t-25.5 -77.5v-780q0 -137 38 -231.5t97 -136.5t107.5 -57.5t95.5 -15.5q156 0 274.5 124t118.5 331v711q0 31 -4 49t-21.5 46t-64.5 42t-121 14v64q221 -6 244 -6q20 0 241 6v-64q-74 0 -121 -13 t-64 -42t-21.5 -49.5t-4.5 -54.5v-656q0 -100 -6 -141q-27 -178 -153.5 -301t-300.5 -123q-211 0 -363.5 148.5t-152.5 363.5v772q0 59 -26 77.5t-136 18.5h-49zM524 1559l273 288h2l272 -288l-35 -35h-2l-235 215h-2l-236 -215h-2z" />
<glyph unicode="&#xdc;" horiz-adv-x="1536" d="M68 1335v64q72 -6 303 -6q229 0 301 6v-64h-49q-111 0 -136.5 -18.5t-25.5 -77.5v-780q0 -137 38 -231.5t97 -136.5t107.5 -57.5t95.5 -15.5q156 0 274.5 124t118.5 331v711q0 31 -4 49t-21.5 46t-64.5 42t-121 14v64q221 -6 244 -6q20 0 241 6v-64q-74 0 -121 -13 t-64 -42t-21.5 -49.5t-4.5 -54.5v-656q0 -100 -6 -141q-27 -178 -153.5 -301t-300.5 -123q-211 0 -363.5 148.5t-152.5 363.5v772q0 59 -26 77.5t-136 18.5h-49zM459 1667q0 43 30.5 75t77.5 32q43 0 75 -30t32 -77q0 -45 -33 -76.5t-74 -31.5q-47 0 -77.5 32.5t-30.5 75.5z M858 1665q0 47 33 78t76 31q45 0 75.5 -33t30.5 -74q0 -43 -30.5 -75.5t-75.5 -32.5q-41 0 -75 30.5t-34 75.5z" />
<glyph unicode="&#xdd;" horiz-adv-x="1536" d="M23 1399q129 -6 266 -6q229 0 303 6v-64q-76 0 -109.5 -10t-33.5 -41q0 -14 14 -35l371 -604l337 549q20 31 21 61q0 35 -28.5 57.5t-88.5 22.5v64q160 -6 236 -6q106 0 200 6v-64q-182 0 -262 -133l-395 -643v-395q0 -63 25.5 -82t138.5 -19h47v-63q-74 6 -299 6 t-299 -6v63h49q111 0 136.5 18.5t25.5 78.5v399l-430 701q-18 31 -32.5 44t-51.5 22t-105 9h-36v64zM670 1567q305 190 323 196q8 2 19 2q33 0 52 -23.5t19 -51.5q0 -37 -32.5 -54.5t-159.5 -56.5l-107 -33q-12 -4 -43.5 -13t-50.5 -13z" />
<glyph unicode="&#xde;" horiz-adv-x="1280" d="M72 1335v64q145 -6 286 -6l308 6v-64h-23q-127 0 -157.5 -16t-30.5 -80v-109h264q213 0 328.5 -119.5t115.5 -262.5q0 -139 -113.5 -261t-332.5 -122h-262v-205q0 -61 29.5 -79t160.5 -18h21v-63q-154 6 -308 6h-14q-121 0 -272 -6v63h32q111 0 144 16.5t35 70.5v1099 q-2 55 -35 70.5t-146 15.5h-30zM455 428h159q8 0 23.5 -1t24.5 -1q145 0 220.5 99.5t75.5 224.5q0 123 -69.5 220t-188.5 97h-245v-639z" />
<glyph unicode="&#xdf;" d="M55 63h17q96 0 119.5 16.5t23.5 78.5v661h-160v62h160v254q0 117 49 189.5t113.5 96t144.5 23.5q117 0 195 -69.5t78 -235.5q0 -76 -11.5 -129.5t-21.5 -79t-33.5 -39.5t-30 -15.5t-26.5 -3.5q-18 -2 -38 -10t-43.5 -45t-23.5 -98q0 -49 14.5 -82t40 -49.5t49 -24.5 t56.5 -14t45 -10q70 -25 126 -96.5t56 -182.5q0 -129 -70.5 -206t-193.5 -77q-76 0 -137 56q-4 -4 -13.5 -14.5t-16.5 -17.5t-16 -13t-18 -6q-25 0 -24 43v256q4 45 16 53q8 4 13 4q18 0 28 -49t18.5 -107.5t45.5 -107.5t102 -49q80 0 123 50t43 132q0 61 -28.5 106 t-71.5 68q-20 10 -81 21.5t-95 33.5q-113 80 -113 228q0 35 7 68.5t25.5 75.5t61.5 70.5t107 34.5q25 4 39 15.5t26 62.5t12 144q0 80 -20.5 136t-55 80.5t-67.5 35t-70 10.5q-47 0 -81.5 -17.5t-53 -41t-29 -60.5t-12.5 -64.5t-2 -64.5v-1149l-47 4h-102l-148 -4v63z" />
<glyph unicode="&#xe0;" d="M86 195q0 174 205 266q123 59 377 74v75q0 127 -66.5 194.5t-150.5 67.5q-150 0 -222 -94q61 -2 83 -32.5t22 -61.5q0 -41 -25.5 -67.5t-68.5 -26.5q-41 0 -68 25.5t-27 70.5q0 100 90.5 166t219.5 66q168 0 280 -113q35 -35 52.5 -80t19.5 -74.5t2 -87.5v-409 q0 -12 4 -32t22.5 -45.5t49.5 -25.5q74 0 73 131v115h52v-115q0 -109 -57.5 -151.5t-110.5 -42.5q-68 0 -111 50t-49 118q-31 -78 -101.5 -128.5t-166.5 -50.5q-74 0 -143.5 18.5t-127 70t-57.5 129.5zM244 197q0 -76 54 -125t130 -49q86 0 163 66.5t77 197.5v205 q-227 -8 -325.5 -98.5t-98.5 -196.5zM317 1239q0 29 20.5 52.5t51.5 23.5q23 0 45.5 -18.5t104.5 -98.5l157 -154l-30 -40q-35 16 -275 153l-10 6q-12 6 -17.5 9.5t-15.5 11.5t-15 15t-10.5 17.5t-5.5 22.5z" />
<glyph unicode="&#xe1;" d="M86 195q0 174 205 266q123 59 377 74v75q0 127 -66.5 194.5t-150.5 67.5q-150 0 -222 -94q61 -2 83 -32.5t22 -61.5q0 -41 -25.5 -67.5t-68.5 -26.5q-41 0 -68 25.5t-27 70.5q0 100 90.5 166t219.5 66q168 0 280 -113q35 -35 52.5 -80t19.5 -74.5t2 -87.5v-409 q0 -12 4 -32t22.5 -45.5t49.5 -25.5q74 0 73 131v115h52v-115q0 -109 -57.5 -151.5t-110.5 -42.5q-68 0 -111 50t-49 118q-31 -78 -101.5 -128.5t-166.5 -50.5q-74 0 -143.5 18.5t-127 70t-57.5 129.5zM244 197q0 -76 54 -125t130 -49q86 0 163 66.5t77 197.5v205 q-227 -8 -325.5 -98.5t-98.5 -196.5zM324 1044l116 115q113 111 140.5 133.5t50.5 22.5q31 0 51 -23.5t20 -52.5t-23.5 -47t-146.5 -88l-94 -53q-45 -27 -84 -47z" />
<glyph unicode="&#xe2;" d="M86 195q0 174 205 266q123 59 377 74v75q0 127 -66.5 194.5t-150.5 67.5q-150 0 -222 -94q61 -2 83 -32.5t22 -61.5q0 -41 -25.5 -67.5t-68.5 -26.5q-41 0 -68 25.5t-27 70.5q0 100 90.5 166t219.5 66q168 0 280 -113q35 -35 52.5 -80t19.5 -74.5t2 -87.5v-409 q0 -12 4 -32t22.5 -45.5t49.5 -25.5q74 0 73 131v115h52v-115q0 -109 -57.5 -151.5t-110.5 -42.5q-68 0 -111 50t-49 118q-31 -78 -101.5 -128.5t-166.5 -50.5q-74 0 -143.5 18.5t-127 70t-57.5 129.5zM178 1024l275 305h2l272 -305l-37 -37l-235 234h-2l-238 -234zM244 197 q0 -76 54 -125t130 -49q86 0 163 66.5t77 197.5v205q-227 -8 -325.5 -98.5t-98.5 -196.5z" />
<glyph unicode="&#xe3;" d="M86 195q0 174 205 266q123 59 377 74v75q0 127 -66.5 194.5t-150.5 67.5q-150 0 -222 -94q61 -2 83 -32.5t22 -61.5q0 -41 -25.5 -67.5t-68.5 -26.5q-41 0 -68 25.5t-27 70.5q0 100 90.5 166t219.5 66q168 0 280 -113q35 -35 52.5 -80t19.5 -74.5t2 -87.5v-409 q0 -12 4 -32t22.5 -45.5t49.5 -25.5q74 0 73 131v115h52v-115q0 -109 -57.5 -151.5t-110.5 -42.5q-68 0 -111 50t-49 118q-31 -78 -101.5 -128.5t-166.5 -50.5q-74 0 -143.5 18.5t-127 70t-57.5 129.5zM160 1128q49 59 71.5 83t65.5 51.5t84 27.5q49 0 131 -48t131 -48 q70 0 164 98l35 -30q-4 -4 -20.5 -23.5t-21.5 -25l-19.5 -21.5t-21.5 -23l-21 -18q-13 -12 -21 -17.5t-22.5 -13.5t-25 -11t-23.5 -6t-25 -3q-47 0 -130 48t-133 48q-16 0 -32.5 -4t-31.5 -12l-28 -16q-12 -7 -25.5 -19t-19.5 -19l-16 -16l-10 -10zM244 197q0 -76 54 -125 t130 -49q86 0 163 66.5t77 197.5v205q-227 -8 -325.5 -98.5t-98.5 -196.5z" />
<glyph unicode="&#xe4;" d="M86 195q0 174 205 266q123 59 377 74v75q0 127 -66.5 194.5t-150.5 67.5q-150 0 -222 -94q61 -2 83 -32.5t22 -61.5q0 -41 -25.5 -67.5t-68.5 -26.5q-41 0 -68 25.5t-27 70.5q0 100 90.5 166t219.5 66q168 0 280 -113q35 -35 52.5 -80t19.5 -74.5t2 -87.5v-409 q0 -12 4 -32t22.5 -45.5t49.5 -25.5q74 0 73 131v115h52v-115q0 -109 -57.5 -151.5t-110.5 -42.5q-68 0 -111 50t-49 118q-31 -78 -101.5 -128.5t-166.5 -50.5q-74 0 -143.5 18.5t-127 70t-57.5 129.5zM205 1241q0 47 31.5 78t74.5 31q41 0 75 -32t34 -77t-33 -75.5 t-74 -30.5q-47 0 -77.5 31.5t-30.5 74.5zM244 197q0 -76 54 -125t130 -49q86 0 163 66.5t77 197.5v205q-227 -8 -325.5 -98.5t-98.5 -196.5zM602 1241q0 47 33 78t76 31t74.5 -31t31.5 -78q0 -45 -32.5 -75.5t-73.5 -30.5q-47 0 -78 32.5t-31 73.5z" />
<glyph unicode="&#xe5;" d="M86 195q0 174 205 266q123 59 377 74v75q0 127 -66.5 194.5t-150.5 67.5q-150 0 -222 -94q61 -2 83 -32.5t22 -61.5q0 -41 -25.5 -67.5t-68.5 -26.5q-41 0 -68 25.5t-27 70.5q0 100 90.5 166t219.5 66q168 0 280 -113q35 -35 52.5 -80t19.5 -74.5t2 -87.5v-409 q0 -12 4 -32t22.5 -45.5t49.5 -25.5q74 0 73 131v115h52v-115q0 -109 -57.5 -151.5t-110.5 -42.5q-68 0 -111 50t-49 118q-31 -78 -101.5 -128.5t-166.5 -50.5q-74 0 -143.5 18.5t-127 70t-57.5 129.5zM244 197q0 -76 54 -125t130 -49q86 0 163 66.5t77 197.5v205 q-227 -8 -325.5 -98.5t-98.5 -196.5zM258 1188q0 66 55.5 116t139.5 50q76 0 136 -46t60 -120q0 -63 -55 -113.5t-139 -50.5q-76 0 -136.5 45t-60.5 119zM309 1188q0 -119 142 -119q147 0 147 119t-141 119q-148 0 -148 -119z" />
<glyph unicode="&#xe6;" horiz-adv-x="1478" d="M90 188q0 145 159 232.5t419 91.5v102q0 106 -61.5 180t-157.5 74q-129 0 -220 -90h2q53 0 77 -30.5t24 -63.5q0 -39 -26.5 -66.5t-65.5 -27.5q-43 0 -69 28.5t-26 73.5q0 96 92.5 159.5t217.5 63.5q209 0 315 -157h2q123 158 307 157q160 0 251 -112.5t91 -284.5 q0 -29 -11 -38t-34 -9h-565v-14q0 -119 29.5 -206t77 -132t96.5 -66.5t98 -21.5q92 0 156.5 56t89.5 130q16 41 26 45q18 8 27.5 -4t5.5 -33q-20 -86 -103 -167t-212 -81q-199 0 -342 181q-100 -180 -346 -181q-53 0 -105.5 10.5t-103.5 33t-83 66.5t-32 101zM250 190 q0 -72 52 -118.5t128 -46.5q102 0 181 71.5t79 171.5q0 20 -11 70.5t-11 130.5q-225 -14 -321.5 -95.5t-96.5 -183.5zM813 516h471q-4 131 -31 201q-29 84 -82 121q-49 31 -96 30q-29 0 -61.5 -11t-77.5 -43t-79 -108.5t-44 -189.5z" />
<glyph unicode="&#xe7;" horiz-adv-x="909" d="M68 442q0 190 128 331.5t318 141.5q131 0 223 -60t92 -155q0 -51 -29.5 -74.5t-64.5 -23.5q-39 0 -66.5 26.5t-27.5 67.5q0 82 96 95q-90 72 -219 71q-106 0 -192 -97t-86 -323q0 -213 91 -312t199 -99q170 0 246 155q4 8 10.5 25.5t12.5 30t12 16.5q10 8 24.5 3 t14.5 -21q0 -51 -68.5 -139.5t-197.5 -116.5v-95q170 -39 170 -147q0 -90 -109.5 -125t-349.5 -35h-27v47h66q274 0 274 113q0 41 -39 74.5t-129 38.5v129q-164 29 -268 158.5t-104 299.5z" />
<glyph unicode="&#xe8;" horiz-adv-x="909" d="M57 451q0 193 124 330t302 137q180 0 273.5 -117t93.5 -285q0 -31 -8 -37t-43 -6h-572q0 -209 62 -307q86 -137 231 -137q20 0 44 4t73 21.5t92 64.5t68 121q6 29 26 28q27 0 27 -24q0 -18 -19.5 -58.5t-56.5 -88.5t-108.5 -84t-157.5 -36q-180 0 -315.5 136.5 t-135.5 337.5zM229 516h486q0 43 -7.5 91t-29 114.5t-71.5 108.5t-124 42q-33 0 -68.5 -14t-78.5 -48t-73 -111t-34 -183zM317 1239q0 29 20.5 52.5t51.5 23.5q23 0 45.5 -18.5t104.5 -98.5l157 -154l-30 -40q-35 16 -275 153l-10 6q-12 6 -17.5 9.5t-15.5 11.5t-15 15 t-10.5 17.5t-5.5 22.5z" />
<glyph unicode="&#xe9;" horiz-adv-x="909" d="M57 451q0 193 124 330t302 137q180 0 273.5 -117t93.5 -285q0 -31 -8 -37t-43 -6h-572q0 -209 62 -307q86 -137 231 -137q20 0 44 4t73 21.5t92 64.5t68 121q6 29 26 28q27 0 27 -24q0 -18 -19.5 -58.5t-56.5 -88.5t-108.5 -84t-157.5 -36q-180 0 -315.5 136.5 t-135.5 337.5zM229 516h486q0 43 -7.5 91t-29 114.5t-71.5 108.5t-124 42q-33 0 -68.5 -14t-78.5 -48t-73 -111t-34 -183zM266 1044l117 115q113 111 140.5 133.5t49.5 22.5q31 0 51.5 -23.5t20.5 -52.5t-23.5 -47t-146.5 -88l-94 -53q-45 -27 -84 -47z" />
<glyph unicode="&#xea;" horiz-adv-x="909" d="M57 451q0 193 124 330t302 137q180 0 273.5 -117t93.5 -285q0 -31 -8 -37t-43 -6h-572q0 -209 62 -307q86 -137 231 -137q20 0 44 4t73 21.5t92 64.5t68 121q6 29 26 28q27 0 27 -24q0 -18 -19.5 -58.5t-56.5 -88.5t-108.5 -84t-157.5 -36q-180 0 -315.5 136.5 t-135.5 337.5zM178 1024l275 305h2l272 -305l-37 -37l-235 234h-2l-238 -234zM229 516h486q0 43 -7.5 91t-29 114.5t-71.5 108.5t-124 42q-33 0 -68.5 -14t-78.5 -48t-73 -111t-34 -183z" />
<glyph unicode="&#xeb;" horiz-adv-x="909" d="M57 451q0 193 124 330t302 137q180 0 273.5 -117t93.5 -285q0 -31 -8 -37t-43 -6h-572q0 -209 62 -307q86 -137 231 -137q20 0 44 4t73 21.5t92 64.5t68 121q6 29 26 28q27 0 27 -24q0 -18 -19.5 -58.5t-56.5 -88.5t-108.5 -84t-157.5 -36q-180 0 -315.5 136.5 t-135.5 337.5zM145 1241q0 47 33 78t76 31t74.5 -31t31.5 -78q0 -45 -32.5 -75.5t-73.5 -30.5q-45 0 -77 32.5t-32 73.5zM229 516h486q0 43 -7.5 91t-29 114.5t-71.5 108.5t-124 42q-33 0 -68.5 -14t-78.5 -48t-73 -111t-34 -183zM545 1241q0 47 31.5 78t74.5 31 q45 0 77 -31t32 -78q0 -45 -33 -75.5t-74 -30.5q-47 0 -77.5 31.5t-30.5 74.5z" />
<glyph unicode="&#xec;" horiz-adv-x="567" d="M-8 1239q0 29 20.5 52.5t50.5 23.5q23 0 42.5 -15.5t107.5 -102.5l156 -153l-31 -40q-25 12 -42 22l-79 45l-151 86l-13 6l-15 9q-5 3 -15.5 11.5t-15.5 15.5t-10 17.5t-5 22.5zM72 0v63q109 0 134 13.5t25 79.5v551q0 76 -25.5 94t-125.5 18v64l287 22v-751 q0 -61 21.5 -76t121.5 -15v-63q-209 6 -213 6q-28 0 -225 -6z" />
<glyph unicode="&#xed;" horiz-adv-x="567" d="M68 0v63q109 0 134 13.5t25 79.5v551q0 76 -25.5 94t-125.5 18v64l286 22v-751q0 -61 22 -76t122 -15v-63q-209 6 -213 6q-28 0 -225 -6zM164 1044l117 115q115 113 141.5 134.5t48.5 21.5q31 0 51.5 -23.5t20.5 -52.5q0 -10 -2 -18.5t-9.5 -16.5l-12.5 -13t-20.5 -14.5 t-24.5 -15.5t-34 -19l-39 -22q-178 -102 -206 -116z" />
<glyph unicode="&#xee;" horiz-adv-x="567" d="M20 1024l275 305h2l272 -305l-37 -37l-235 234h-2l-238 -234zM70 0v63q109 0 134 13.5t25 79.5v551q0 76 -25.5 94t-125.5 18v64l287 22v-751q0 -61 21.5 -76t121.5 -15v-63q-209 6 -213 6q-28 0 -225 -6z" />
<glyph unicode="&#xef;" horiz-adv-x="681" d="M43 1241q0 47 33 78t76 31t74.5 -31t31.5 -78q0 -45 -32.5 -75.5t-73.5 -30.5q-45 0 -77 32.5t-32 73.5zM125 0v63q109 0 134.5 13.5t25.5 79.5v551q0 76 -26 94t-126 18v64l287 22v-751q0 -61 21.5 -76t121.5 -15v-63q-209 6 -213 6q-28 0 -225 -6zM440 1241q0 47 33 78 t76 31t74.5 -31t31.5 -78q0 -45 -32.5 -75.5t-73.5 -30.5q-45 0 -77 32.5t-32 73.5z" />
<glyph unicode="&#xf0;" d="M55 436q0 201 135.5 340t315.5 139q139 0 254 -157q-43 141 -110.5 237.5t-164.5 190.5l-219 -127l-28 -10q-18 -2 -27 16l2 10l2 8q41 29 124 76t105 62q-90 63 -153.5 96t-102 44t-45.5 15q-16 6 -16 19q0 25 35 24q6 0 15 -1t20.5 -3t17.5 -2q90 -16 166 -49 t115 -56.5t49 -23.5q14 0 124.5 66.5t127.5 66.5q10 0 17 -10q7 -11 3 -21q-6 -12 -229 -139q100 -78 174 -170t111.5 -167.5t59 -160.5t27 -133.5t5.5 -97.5v-61q0 -227 -140.5 -353.5t-314.5 -126.5q-184 0 -319.5 132t-135.5 327zM227 455q0 -160 39 -250 q31 -70 94.5 -122t149.5 -52q47 0 92 19.5t90 62.5t73 127t28 198q0 182 -82 306t-203 124q-139 0 -221 -133q-60 -96 -60 -280z" />
<glyph unicode="&#xf1;" horiz-adv-x="1136" d="M66 0v63q109 0 134 13.5t25 79.5v549q0 76 -26.5 95t-132.5 19v64l288 22v-215q96 215 303 215q154 0 215 -76q45 -51 54.5 -108t9.5 -205v-391q2 -43 35 -52.5t125 -9.5v-63q-209 6 -230 6q-16 0 -231 -6v63q109 0 134.5 13.5t25.5 79.5v477q0 104 -32 165.5t-120 61.5 q-106 0 -191 -89t-85 -239v-376q0 -66 25.5 -79.5t133.5 -13.5v-63q-209 6 -229 6q-16 0 -231 -6zM238 1128q49 59 71.5 83t65.5 51.5t84 27.5q49 0 131 -48t131 -48q70 0 164 98l35 -30q-4 -4 -20.5 -23.5t-22 -25t-19.5 -21.5t-21 -23l-21 -18q-13 -12 -21.5 -17.5 t-22.5 -13.5t-24.5 -11t-23.5 -6t-26 -3q-47 0 -130 48t-132 48q-16 0 -32.5 -4t-31.5 -12l-28 -16q-12 -7 -25.5 -19t-19.5 -19l-16 -16l-11 -10z" />
<glyph unicode="&#xf2;" d="M57 438.5q0 194.5 132.5 337t322.5 142.5q186 0 319.5 -141.5t133.5 -338.5q0 -193 -134.5 -327t-320.5 -134q-182 0 -317.5 133.5t-135.5 328zM227 455q0 -199 52 -289q80 -137 233 -137q76 0 139.5 41t98.5 110q45 90 45 275q0 197 -54 284q-80 133 -231 133 q-66 0 -130.5 -34.5t-103.5 -102.5q-49 -90 -49 -280zM317 1239q0 29 20.5 52.5t51.5 23.5q23 0 45.5 -18.5t104.5 -98.5l157 -154l-30 -40q-35 16 -275 153l-10 6q-12 6 -17.5 9.5t-15.5 11.5t-15 15t-10.5 17.5t-5.5 22.5z" />
<glyph unicode="&#xf3;" d="M57 438.5q0 194.5 132.5 337t322.5 142.5q186 0 319.5 -141.5t133.5 -338.5q0 -193 -134.5 -327t-320.5 -134q-182 0 -317.5 133.5t-135.5 328zM227 455q0 -199 52 -289q80 -137 233 -137q76 0 139.5 41t98.5 110q45 90 45 275q0 197 -54 284q-80 133 -231 133 q-66 0 -130.5 -34.5t-103.5 -102.5q-49 -90 -49 -280zM324 1044l116 115q113 111 140.5 133.5t50.5 22.5q31 0 51 -23.5t20 -52.5t-23.5 -47t-146.5 -88l-94 -53q-45 -27 -84 -47z" />
<glyph unicode="&#xf4;" d="M57 438.5q0 194.5 132.5 337t322.5 142.5q186 0 319.5 -141.5t133.5 -338.5q0 -193 -134.5 -327t-320.5 -134q-182 0 -317.5 133.5t-135.5 328zM227 455q0 -199 52 -289q80 -137 233 -137q76 0 139.5 41t98.5 110q45 90 45 275q0 197 -54 284q-80 133 -231 133 q-66 0 -130.5 -34.5t-103.5 -102.5q-49 -90 -49 -280zM236 1024l274 305h2l272 -305l-36 -37l-236 234h-2l-238 -234z" />
<glyph unicode="&#xf5;" d="M57 438.5q0 194.5 132.5 337t322.5 142.5q186 0 319.5 -141.5t133.5 -338.5q0 -193 -134.5 -327t-320.5 -134q-182 0 -317.5 133.5t-135.5 328zM168 1128q49 59 71.5 83t65.5 51.5t84 27.5q49 0 131 -48t131 -48q70 0 164 98l35 -30q-4 -4 -20.5 -23.5t-21.5 -25 l-19.5 -21.5t-21.5 -23l-21 -18q-13 -12 -21 -17.5t-22.5 -13.5t-24.5 -11t-23.5 -6t-25.5 -3q-47 0 -130 48t-132 48q-16 0 -33 -4t-32 -12l-28 -16q-12 -7 -25 -19t-20 -19l-16 -16l-10 -10zM227 455q0 -199 52 -289q80 -137 233 -137q76 0 139.5 41t98.5 110 q45 90 45 275q0 197 -54 284q-80 133 -231 133q-66 0 -130.5 -34.5t-103.5 -102.5q-49 -90 -49 -280z" />
<glyph unicode="&#xf6;" d="M57 438.5q0 194.5 132.5 337t322.5 142.5q186 0 319.5 -141.5t133.5 -338.5q0 -193 -134.5 -327t-320.5 -134q-182 0 -317.5 133.5t-135.5 328zM203 1241q0 47 32.5 78t75.5 31q41 0 74 -32t33 -77t-33 -75.5t-74 -30.5q-47 0 -77.5 31.5t-30.5 74.5zM227 455 q0 -199 52 -289q80 -137 233 -137q76 0 139.5 41t98.5 110q45 90 45 275q0 197 -54 284q-80 133 -231 133q-66 0 -130.5 -34.5t-103.5 -102.5q-49 -90 -49 -280zM602 1241q0 47 32 78t75 31q45 0 76.5 -31t31.5 -78t-31.5 -76.5t-76.5 -29.5t-76 32.5t-31 73.5z" />
<glyph unicode="&#xf7;" horiz-adv-x="1593" d="M115 512q0 41 65 41h1231q63 0 63.5 -41t-57.5 -41h-1243q-59 0 -59 41zM666 72q0 53 37.5 90t91.5 37q51 0 90 -37t39 -90q0 -55 -39 -92t-90 -37q-55 0 -92 39t-37 90zM666 952q0 53 37.5 91t91.5 38q51 0 90 -36.5t39 -92.5q0 -53 -39 -90t-90 -37q-55 0 -92 39 t-37 88z" />
<glyph unicode="&#xf8;" d="M70 436q0 193 127 336t313 143q104 0 213 -59l135 236l41 -23l-137 -240q188 -152 188 -393q0 -188 -127 -323.5t-313 -135.5q-102 0 -209 56l-139 -244l-41 23l141 245q-92 66 -142 165t-50 214zM213 436q0 -215 86 -315l391 680q-86 68 -178 67q-80 0 -146.5 -42 t-103.5 -113q-49 -95 -49 -277zM334 86q86 -61 176 -61q78 0 148.5 43t109.5 122q41 96 41 246q0 215 -84 328h-2z" />
<glyph unicode="&#xf9;" horiz-adv-x="1136" d="M63 881l304 22v-661q0 -53 4 -83t19.5 -66t54 -52t100.5 -16q92 0 170 78.5t78 252.5q0 8 -1 24.5t-1 27.5v309q-2 63 -31 82.5t-117 19.5h-10v62l301 22v-733q0 -66 29.5 -86.5t119.5 -20.5h11v-63l-297 -23v181q-82 -180 -260 -181q-104 0 -172 28t-96.5 78t-37 90 t-8.5 93v439q0 76 -31.5 95t-128.5 19v62zM356 1239q0 29 20.5 52.5t51.5 23.5q23 0 45.5 -18.5t104.5 -98.5l157 -154l-30 -40q-35 16 -275 153l-12 6l-16 9q-5 3 -15 11.5t-15 15.5t-10.5 17.5t-5.5 22.5z" />
<glyph unicode="&#xfa;" horiz-adv-x="1136" d="M66 819v64l301 22v-680q0 -49 4 -77.5t20.5 -61.5t55 -48t100.5 -15q111 0 179.5 91t68.5 226v365q0 76 -27 95t-133 19v64l301 22v-727q0 -76 26.5 -95.5t133.5 -19.5v-63l-295 -23v185q-86 -184 -264 -185q-90 0 -151.5 23t-92.5 51.5t-47.5 83.5t-18.5 89t-2 100v307 q0 139 -20 163.5t-139 24.5zM391 1044l117 115q113 111 140.5 133.5t49.5 22.5q31 0 51.5 -23.5t20.5 -52.5t-23.5 -47t-146.5 -88l-94 -53q-45 -27 -84 -47z" />
<glyph unicode="&#xfb;" horiz-adv-x="1136" d="M63 881l304 22v-661q0 -53 4 -83t19.5 -66t54 -52t100.5 -16q92 0 170 78.5t78 252.5q0 8 -1 24.5t-1 27.5v309q-2 63 -31 82.5t-117 19.5h-10v62l301 22v-733q0 -66 29.5 -86.5t119.5 -20.5h11v-63l-297 -23v181q-82 -180 -260 -181q-104 0 -172 28t-96.5 78t-37 90 t-8.5 93v439q0 76 -31.5 95t-128.5 19v62zM303 1024l275 305h2l272 -305l-37 -37l-235 234h-2l-238 -234z" />
<glyph unicode="&#xfc;" horiz-adv-x="1136" d="M66 819v64l301 22v-680q0 -49 4 -77.5t20.5 -61.5t55 -48t100.5 -15q111 0 179.5 91t68.5 226v365q0 76 -27 95t-133 19v64l301 22v-727q0 -76 26.5 -95.5t133.5 -19.5v-63l-295 -23v185q-86 -184 -264 -185q-90 0 -151.5 23t-92.5 51.5t-47.5 83.5t-18.5 89t-2 100v307 q0 139 -20 163.5t-139 24.5zM270 1241q0 47 33 78t76 31t74.5 -31t31.5 -78q0 -45 -32.5 -75.5t-73.5 -30.5q-47 0 -78 32.5t-31 73.5zM670 1241q0 47 32.5 78t75.5 31t75 -31t32 -78q0 -45 -33 -75.5t-74 -30.5t-74.5 30.5t-33.5 75.5z" />
<glyph unicode="&#xfd;" horiz-adv-x="1079" d="M39 -254q0 43 25.5 65.5t60.5 22.5q37 0 61.5 -23.5t24.5 -62.5q0 -76 -80 -86q39 -37 96 -37q61 0 110.5 45t71 88t52.5 121q29 61 51 121l-307 748q-20 49 -51 60t-115 11v64q92 -6 199 -6q63 0 223 6v-64q-115 0 -115 -53q0 -6 12 -37l228 -551l207 504q12 29 12 49 q0 84 -96 88v64q135 -6 178 -6q84 0 153 6v-64q-137 0 -190 -131l-361 -874q-98 -233 -262 -234q-78 0 -133 48t-55 118zM467 1044l117 115q113 111 140.5 133.5t49.5 22.5q31 0 51.5 -23.5t20.5 -52.5t-23.5 -47t-146.5 -88l-94 -53q-45 -27 -84 -47z" />
<glyph unicode="&#xfe;" horiz-adv-x="1136" d="M55 1358v63l297 23v-674q113 133 285 133q174 0 302 -133t128 -328q0 -201 -138 -333t-317 -132q-147 0 -254 125v-327q0 -74 22.5 -92.5t123.5 -18.5h12v-63q-117 6 -237 6h-9q-96 0 -215 -6v63h11q96 0 122.5 16.5t26.5 75.5v1493q0 74 -33 91.5t-127 17.5zM358 236 q0 -78 75 -144.5t165 -66.5q127 0 213 121.5t86 293.5q0 170 -79 291t-200 121q-96 0 -169.5 -58.5t-88.5 -107.5q-2 -6 -2 -41v-409z" />
<glyph unicode="&#xff;" horiz-adv-x="1079" d="M39 -254q0 43 25.5 65.5t60.5 22.5q37 0 61.5 -23.5t24.5 -62.5q0 -76 -80 -86q39 -37 96 -37q61 0 110.5 45t71 88t52.5 121q29 61 51 121l-307 748q-20 49 -51 60t-115 11v64q92 -6 199 -6q63 0 223 6v-64q-115 0 -115 -53q0 -6 12 -37l228 -551l207 504q12 29 12 49 q0 84 -96 88v64q135 -6 178 -6q84 0 153 6v-64q-137 0 -190 -131l-361 -874q-98 -233 -262 -234q-78 0 -133 48t-55 118zM231 1241q0 47 33 78t76 31t74.5 -31t31.5 -78q0 -45 -32.5 -75.5t-73.5 -30.5q-45 0 -77 32.5t-32 73.5zM631 1241q0 47 31.5 78t74.5 31q41 0 75 -32 t34 -77t-33 -75.5t-74 -30.5q-47 0 -77.5 30.5t-30.5 75.5z" />
<glyph unicode="&#x152;" horiz-adv-x="2076" d="M141 694q0 307 199 528.5t479 221.5q57 0 157.5 -22.5t180.5 -22.5h746l57 -461h-51q-14 98 -22.5 145t-36 105.5t-70.5 91.5q-80 55 -273 55h-188q-63 0 -86 -12t-25 -63v-502h197q43 0 69.5 1t61.5 8t55.5 20.5t39 40t24.5 63.5q6 35 6 106h53v-540h-53v22 q0 133 -52.5 175t-191.5 42h-209v-553q0 -53 22.5 -66.5t94.5 -13.5h191q90 0 153.5 10.5t109.5 38t73.5 58.5t50 92.5t34 115.5t27.5 150h53l-86 -528h-774q-80 0 -179 -22.5t-159 -22.5q-270 0 -474 213t-204 526zM348 723q0 -293 136.5 -507t340.5 -214q63 0 105.5 18.5 t67 47t35.5 93t14.5 125t3.5 173.5v473q0 98 -1 149.5t-8.5 115t-21.5 93t-39 59t-62.5 40t-93.5 10.5q-207 0 -342 -201t-135 -475z" />
<glyph unicode="&#x153;" horiz-adv-x="1593" d="M55 449q0 184 124 325t315 141q106 0 199 -54t155 -150h2q53 84 139 144t201 60q160 0 252 -112.5t92 -284.5q0 -29 -11.5 -38t-35.5 -9h-563q0 -211 77 -317q90 -123 224 -123q88 0 153.5 56t91.5 128q0 2 3.5 10t5.5 14.5t7 13.5t11 9q12 6 22.5 0t10.5 -20 q0 -68 -87 -166.5t-229 -98.5q-94 0 -180 43t-145 117q-23 27 -37 51q-61 -100 -155.5 -155.5t-202.5 -55.5q-178 0 -308.5 136.5t-130.5 335.5zM215 457q0 -164 41 -254q27 -68 81 -116t122 -60q6 0 17 -1t18 -1q141 0 213.5 128t72.5 306q0 139 -41 233q-31 68 -87 116 t-126 58q-6 0 -16 1t-16 1q-111 -2 -191 -94q-82 -98 -86 -278q-2 -12 -2 -39zM926 516h471q-8 195 -70 279q-37 47 -84 63q-35 10 -57 10q-29 0 -61.5 -11t-78 -43t-78 -108.5t-42.5 -189.5z" />
<glyph unicode="&#x178;" horiz-adv-x="1536" d="M23 1399q129 -6 266 -6q229 0 303 6v-64q-76 0 -109.5 -10t-33.5 -41q0 -14 14 -35l371 -604l337 549q20 31 21 61q0 35 -28.5 57.5t-88.5 22.5v64q160 -6 236 -6q106 0 200 6v-64q-182 0 -262 -133l-395 -643v-395q0 -63 25.5 -82t138.5 -19h47v-63q-74 6 -299 6 t-299 -6v63h49q111 0 136.5 18.5t25.5 78.5v399l-430 701q-18 31 -32.5 44t-51.5 22t-105 9h-36v64zM459 1667q0 43 30.5 75t77.5 32q43 0 75 -30t32 -77q0 -45 -33 -76.5t-74 -31.5q-47 0 -77.5 32.5t-30.5 75.5zM858 1665q0 47 33 78t74 31q47 0 77.5 -33t30.5 -74 q0 -43 -30.5 -75.5t-75.5 -32.5q-41 0 -75 30.5t-34 75.5z" />
<glyph unicode="&#x2c6;" d="M236 1024l274 305h2l272 -305l-36 -37l-236 234h-2l-238 -234z" />
<glyph unicode="&#x2dc;" d="M170 1204q49 59 71.5 83t65.5 51.5t84 27.5q47 0 131 -48t131 -48q70 0 164 98l35 -31q-4 -4 -20.5 -23.5t-21.5 -24.5t-19.5 -21.5t-21.5 -22.5l-20 -18q-13 -12 -21.5 -17.5t-23 -13.5t-24.5 -11t-23.5 -6t-25.5 -3q-47 0 -130 48t-132 48q-16 0 -33 -4t-32 -13 l-28 -15q-12 -7 -25 -19.5t-20 -18.5l-16 -16l-10 -10z" />
<glyph unicode="&#x2000;" horiz-adv-x="933" />
<glyph unicode="&#x2001;" horiz-adv-x="1867" />
<glyph unicode="&#x2002;" horiz-adv-x="933" />
<glyph unicode="&#x2003;" horiz-adv-x="1867" />
<glyph unicode="&#x2004;" horiz-adv-x="622" />
<glyph unicode="&#x2005;" horiz-adv-x="466" />
<glyph unicode="&#x2006;" horiz-adv-x="311" />
<glyph unicode="&#x2007;" horiz-adv-x="311" />
<glyph unicode="&#x2008;" horiz-adv-x="233" />
<glyph unicode="&#x2009;" horiz-adv-x="372" />
<glyph unicode="&#x200a;" horiz-adv-x="102" />
<glyph unicode="&#x2010;" horiz-adv-x="681" d="M20 381v121h545v-121h-545z" />
<glyph unicode="&#x2011;" horiz-adv-x="681" d="M20 381v121h545v-121h-545z" />
<glyph unicode="&#x2012;" horiz-adv-x="681" d="M20 381v121h545v-121h-545z" />
<glyph unicode="&#x2013;" d="M0 522v45h1022v-45h-1022z" />
<glyph unicode="&#x2014;" horiz-adv-x="2048" d="M0 522v45h2046v-45h-2046z" />
<glyph unicode="&#x2018;" horiz-adv-x="569" d="M145 1022q0 102 41 199.5t85 146.5t64.5 49t20.5 -20q0 -8 -25 -39l-57 -70q-31 -39 -56 -110.5t-25 -151.5q0 -31 2 -45q39 43 88 43q47 0 77.5 -31.5t30.5 -77t-29.5 -77t-76.5 -31.5q-63 0 -101.5 58.5t-38.5 156.5z" />
<glyph unicode="&#x2019;" horiz-adv-x="569" d="M174 1313q0 45 31 76.5t78 31.5q61 0 99 -58t38 -157q0 -100 -41 -197.5t-85 -147.5t-64.5 -50t-20.5 20q0 8 25 39l57 70q31 39 56.5 110.5t25.5 153.5q0 29 -2 45q-41 -45 -88 -45t-78 32t-31 77z" />
<glyph unicode="&#x201a;" horiz-adv-x="569" d="M176 109q0 43 28.5 75.5t80.5 32.5q61 0 96 -58.5t35 -156.5q0 -106 -43 -204.5t-85 -145.5t-59 -47q-20 0 -20 22q0 8 14 23q147 158 148 352q0 31 -4 31l-5 -4q-35 -29 -77 -29q-51 0 -80 33t-29 76z" />
<glyph unicode="&#x201c;" horiz-adv-x="681" d="M-10 1022q0 102 41 199.5t85 146.5t64.5 49t20.5 -20q0 -8 -26 -39l-56 -70q-31 -39 -56.5 -110.5t-25.5 -151.5q0 -31 2 -45q39 43 88 43q47 0 78 -31.5t31 -77t-30 -77t-77 -31.5q-63 0 -101 58.5t-38 156.5zM422 1022q0 100 40 197.5t84 147.5t66 50q20 0 21 -20 q0 -8 -26 -39l-57 -70q-32 -39 -57.5 -110.5t-25.5 -153.5q0 -16 4 -45q39 43 88 43q47 0 77 -30.5t30 -76t-30 -77t-77 -31.5q-61 0 -99 58.5t-38 156.5z" />
<glyph unicode="&#x201d;" horiz-adv-x="681" d="M16 1313q0 45 31 76.5t78 31.5q61 0 99 -58t38 -157q0 -100 -41 -197.5t-85 -147.5t-64.5 -50t-20.5 20q0 8 26 39l56 70q31 39 56.5 110.5t25.5 153.5q0 29 -2 45q-41 -45 -88 -45t-78 32t-31 77zM446 1313q0 45 31 76.5t78 31.5q61 0 99 -58t38 -157q0 -100 -41 -197.5 t-85 -147.5t-64.5 -50t-20.5 20q0 8 26 39l56 70q31 39 56.5 110.5t25.5 153.5q0 29 -2 45q-41 -45 -88 -45t-78 32t-31 77z" />
<glyph unicode="&#x201e;" horiz-adv-x="681" d="M16 108.5q0 45.5 31 77t78 31.5q61 0 99 -58.5t38 -156.5q0 -100 -41 -197.5t-85 -147.5t-64.5 -50t-20.5 20q0 8 26 39l56 70q31 39 56.5 110.5t25.5 153.5q0 29 -2 45q-41 -45 -88 -45t-78 31.5t-31 77zM446 108.5q0 45.5 31 77t78 31.5q61 0 99 -58.5t38 -156.5 q0 -100 -41 -197.5t-85 -147.5t-64.5 -50t-20.5 20q0 8 26 39l56 70q31 39 56.5 110.5t25.5 153.5q0 29 -2 45q-41 -45 -88 -45t-78 31.5t-31 77z" />
<glyph unicode="&#x2022;" d="M113 512q0 162 114.5 279.5t282.5 117.5t282.5 -116.5t114.5 -280.5q0 -162 -114.5 -279.5t-282.5 -117.5t-282.5 117.5t-114.5 279.5z" />
<glyph unicode="&#x2026;" horiz-adv-x="1708" d="M174 109q0 43 31 74.5t78 31.5q43 0 74.5 -29.5t31.5 -77t-32.5 -78t-73.5 -30.5q-47 0 -78 33t-31 76zM743 109q0 43 31 74.5t78 31.5q43 0 74.5 -29.5t31.5 -77t-32.5 -78t-73.5 -30.5q-47 0 -78 33t-31 76zM1313 109q0 43 30.5 74.5t77.5 31.5q43 0 75 -29.5t32 -77 t-33 -78t-74 -30.5q-47 0 -77.5 33t-30.5 76z" />
<glyph unicode="&#x202f;" horiz-adv-x="372" />
<glyph unicode="&#x2039;" horiz-adv-x="909" d="M231 496q0 12 57.5 54t156 146.5t176.5 251.5q20 37 36 37q18 0 19 -18q0 -33 -50.5 -131.5t-105.5 -173.5q-61 -84 -141 -168q90 -88 162.5 -198t103.5 -180.5t31 -92.5q0 -18 -19 -19q-16 0 -38.5 44t-87 138.5t-162.5 184.5q-27 25 -52.5 45t-40 30.5t-25.5 19.5 t-15.5 15.5t-4.5 14.5z" />
<glyph unicode="&#x203a;" horiz-adv-x="909" d="M229 23q2 33 52.5 131t103.5 174q55 76 143 168q-90 88 -163.5 198.5t-104.5 180t-31 92.5q0 18 19 18q8 0 12 -3t10 -12t12.5 -20.5l20.5 -35.5l29 -48q74 -119 161 -203.5t135 -119.5t48 -47q0 -10 -23 -29l-62 -51q-40 -33 -87 -77t-107.5 -123t-111.5 -175 q-20 -37 -37 -37q-19 1 -19 19z" />
<glyph unicode="&#x205f;" horiz-adv-x="466" />
<glyph unicode="&#x20ac;" horiz-adv-x="1478" d="M4 594q0 8 4 22.5t19.5 33t40.5 18.5h161v63h-182q-43 0 -43 25q0 14 12.5 38.5t24.5 30.5q10 4 29 4h172q47 231 232 400.5t454 169.5q164 0 306 -72t171 -127v-6q0 -27 -20.5 -74t-41.5 -47q-8 0 -40 27l-76 59q-43 33 -125 59.5t-174 26.5q-188 0 -335 -116.5 t-194 -299.5h799q41 -2 41 -22q0 -10 -10 -34.5t-25 -35.5q-8 -6 -49 -6h-770v-63h737q45 0 45 -23q0 -6 -8 -31q-12 -31 -23.5 -38t-35.5 -7h-701q49 -190 197.5 -301.5t333.5 -111.5q242 0 422 151q25 23 41 23q20 0 20 -39v-58q0 -23 -4 -34t-24.5 -30t-65.5 -50 q-180 -119 -389 -119q-242 0 -439.5 153.5t-248.5 415.5h-193q-45 0 -45 25z" />
<glyph unicode="&#x2122;" horiz-adv-x="1366" d="M6 1513q0 23 51 23h574q47 0 47 -23q0 -25 -51 -24h-260v-723q-4 -39 -27 -39q-20 0 -25 39v723h-252q-57 4 -57 24zM770 770v756q0 51 27 51q20 0 45 -64l182 -450l123 309q61 154 73.5 179.5t28.5 25.5q27 0 27 -51v-752q0 -47 -27 -47q-25 0 -24 49v596q0 35 -2 51 q-6 -20 -86 -218.5t-86 -209.5q-12 -23 -27 -22q-16 0 -31 26l-172 424v-618q0 -6 1 -15.5t1 -13.5q0 -51 -26.5 -51t-26.5 45z" />
<glyph unicode="&#xe000;" horiz-adv-x="885" d="M0 885h885v-885h-885v885z" />
<glyph unicode="&#xfb01;" horiz-adv-x="1136" d="M55 0v63h17q96 0 119.5 16.5t23.5 78.5v661h-160v62h160v229q0 162 136 248t302 86q115 0 190 -59.5t75 -143.5q0 -45 -28 -71.5t-67 -26.5t-66.5 26.5t-27.5 67.5t27.5 66.5t70.5 27.5q-76 66 -178 66q-43 0 -90 -13.5t-97 -43t-83 -90t-33 -142.5v-227h279v4l297 22 v-760q0 -53 25.5 -68.5t111.5 -15.5h20v-63q-117 6 -233 6q-111 0 -221 -6v63h20q88 0 112.5 16.5t24.5 74.5v479q0 10 1 28.5t1 26.5q0 78 -20.5 104.5t-93.5 26.5h-318v-661q0 -63 27 -79t117 -16h16v-63q-117 6 -236 6q-110 0 -221 -6z" />
<glyph unicode="&#xfb02;" horiz-adv-x="1136" d="M55 0v63h17q96 0 119.5 16.5t23.5 78.5v661h-160v62h160v227q0 160 133 248t307 88q88 0 135.5 -15.5t59.5 -15.5q14 0 72 8v-1265q0 -61 24.5 -77t122.5 -16h10v-63q-117 6 -233 6q-111 0 -221 -6v63h16q96 0 118.5 16.5t22.5 78.5v661h-430v-661q0 -63 27 -79t117 -16 h16v-63q-117 6 -236 6q-110 0 -221 -6zM346 881h436v336q-49 35 -49 81q0 45 49 80v2q-59 16 -127 17q-70 0 -134 -22.5t-119.5 -93.5t-55.5 -181v-219z" />
<glyph unicode="&#xfb03;" horiz-adv-x="1705" d="M55 0v63h17q96 0 119.5 16.5t23.5 78.5v661h-160v62h160v227q0 111 71.5 190.5t167 112.5t193.5 33q158 0 238 -113q150 113 332 113q123 0 196.5 -61.5t73.5 -141.5q0 -47 -27.5 -71.5t-66.5 -24.5t-67 24.5t-28 67.5q0 31 21.5 59.5t77.5 34.5q-76 66 -178 66 q-41 0 -88.5 -13.5t-98.5 -43t-84 -90t-33 -142.5v-227h277v4l297 22v-760q0 -53 26.5 -68.5t112.5 -15.5h21v-63q-117 6 -234 6q-111 0 -223 -6v63h22q88 0 113 16.5t25 74.5v532q0 80 -19.5 106.5t-93.5 26.5h-317v-661q0 -63 26.5 -79t116.5 -16h14v-63q-117 6 -233 6 q-111 0 -221 -6v63h16q96 0 118.5 16.5t22.5 78.5v661h-430v-661q0 -63 27 -79t117 -16h16v-63q-117 6 -236 6q-110 0 -221 -6zM346 881h436v163l2 105q-59 31 -59 88q0 18 6 35.5t28.5 37t61.5 21.5q-66 66 -174 66q-33 0 -69.5 -7.5t-78.5 -28t-75 -52t-55.5 -83.5 t-22.5 -120v-225z" />
<glyph unicode="&#xfb04;" horiz-adv-x="1705" d="M55 0v63h17q96 0 119.5 16.5t23.5 78.5v661h-160v62h160v227q-4 154 129 245t305 91q174 0 246 -105q152 104 328 105q88 0 135 -15.5t61.5 -15.5t69.5 8v-1267q2 -59 26.5 -75t122.5 -16h11v-63q-117 6 -234 6q-111 0 -223 -6v63h16q98 0 121 16.5t23 78.5v661h-430 v-661q0 -63 26.5 -79t116.5 -16h14v-63q-117 6 -233 6q-111 0 -221 -6v63h16q96 0 118.5 16.5t22.5 78.5v661h-430v-661q0 -63 27 -79t117 -16h16v-63q-117 6 -236 6q-110 0 -221 -6zM346 881h436v174q6 117 9 131q-57 33 -58 84q0 61 74 90q-86 37 -156 37q-45 0 -93 -13.5 t-98 -43t-82 -91t-32 -143.5v-225zM915 881h437v336q-49 35 -49 81q0 45 49 80v2q-59 16 -129 17q-49 0 -98.5 -14.5t-98.5 -45t-80 -92t-31 -145.5v-219z" />
</font>
</defs>
</svg>
